<?xml version="1.0" encoding="UTF-8" standalone="no"?>
<!-- Created with Inkscape (http://www.inkscape.org/) -->

<svg
   width="144.61241mm"
   height="67.571037mm"
   viewBox="0 0 144.61241 67.571037"
   version="1.1"
   id="svg1"
   xmlns:xlink="http://www.w3.org/1999/xlink"
   xmlns="http://www.w3.org/2000/svg"
   xmlns:svg="http://www.w3.org/2000/svg"
   xmlns:rdf="http://www.w3.org/1999/02/22-rdf-syntax-ns#"
   xmlns:cc="http://creativecommons.org/ns#">
  <defs
     id="defs1">
    <linearGradient
       id="linearGradient4">
      <stop
         style="stop-color:#ffc0ff;stop-opacity:1;"
         offset="0"
         id="stop4" />
      <stop
         style="stop-color:#ffffff;stop-opacity:1;"
         offset="1"
         id="stop5" />
    </linearGradient>
    <rect
       x="118.15997"
       y="84.399976"
       width="683.34286"
       height="489.30572"
       id="rect2" />
    <linearGradient
       id="linearGradient1">
      <stop
         style="stop-color:#ff80ff;stop-opacity:1;"
         offset="0"
         id="stop1" />
      <stop
         style="stop-color:#ffc0ff;stop-opacity:1;"
         offset="1"
         id="stop2" />
    </linearGradient>
    <linearGradient
       xlink:href="#linearGradient1"
       id="linearGradient2"
       x1="28.021132"
       y1="113.51503"
       x2="184.49393"
       y2="113.51503"
       gradientUnits="userSpaceOnUse"
       gradientTransform="translate(1.8792458e-6)" />
    <linearGradient
       xlink:href="#linearGradient4"
       id="linearGradient5"
       x1="218.09613"
       y1="178.17168"
       x2="710.65088"
       y2="178.17168"
       gradientUnits="userSpaceOnUse" />
  </defs>
  <g
     id="layer1"
     transform="translate(-27.624257,-77.868617)">
    <g
       id="rect1"
       style="opacity:1">
      <path
         style="baseline-shift:baseline;display:inline;overflow:visible;vector-effect:none;fill:#ff00ff;stroke-linecap:round;paint-order:markers stroke fill;enable-background:accumulate;stop-color:#000000;stop-opacity:1"
         d="M 41.515625,77.869141 C 33.831659,77.869141 27.625,84.0758 27.625,91.759766 v 39.789064 c 0,7.68397 6.206659,13.89062 13.890625,13.89062 H 158.3457 c 7.68397,0 13.89063,-6.20665 13.89063,-13.89062 V 91.759766 c 0,-7.683966 -6.20666,-13.890625 -13.89063,-13.890625 z m 0,1.322265 H 158.3457 c 6.97396,0 12.56836,5.594409 12.56836,12.56836 v 39.789064 c 0,6.97395 -5.5944,12.56836 -12.56836,12.56836 H 41.515625 c -6.973952,0 -12.568359,-5.59441 -12.568359,-12.56836 V 91.759766 c 0,-6.973951 5.594407,-12.56836 12.568359,-12.56836 z"
         id="path15" />
      <path
         style="baseline-shift:baseline;display:inline;overflow:visible;vector-effect:none;fill:url(#linearGradient2);stroke-linecap:round;paint-order:markers stroke fill;enable-background:accumulate;stop-color:#000000;stop-opacity:1"
         d="M 41.514884,78.530075 H 158.34604 c 7.32896,0 13.22917,5.900209 13.22917,13.229167 v 39.789788 c 0,7.32896 -5.90021,13.22917 -13.22917,13.22917 H 41.514884 c -7.328959,0 -13.229167,-5.90021 -13.229167,-13.22917 V 91.759242 c 0,-7.328958 5.900208,-13.229167 13.229167,-13.229167 z"
         id="path16" />
    </g>
    <g
       id="text2"
       style="font-size:48px;line-height:1;font-family:Arial;-inkscape-font-specification:'Arial, Normal';font-variant-ligatures:none;text-align:center;white-space:pre;fill:url(#linearGradient5);stroke:#c000c0;stroke-width:5;stroke-linecap:round;paint-order:markers stroke fill"
       transform="matrix(0.26458333,0,0,0.26458333,-21.733169,64.512881)"
       aria-label="Download&#10;from Releases">
      <g
         id="path9"
         style="opacity:1">
        <path
           style="font-size:128px;font-family:'Bubblegum Sans';-inkscape-font-specification:'Bubblegum Sans';font-variant-ligatures:normal;text-align:start;baseline-shift:baseline;white-space:normal;display:inline;overflow:visible;vector-effect:none;fill:#c000c0;stroke:none;stroke-linecap:butt;enable-background:accumulate;stop-color:#000000;stop-opacity:1"
           d="m 231.99219,88.759766 c -4.64658,0 -8.25517,0.103953 -10.90039,0.328125 -1.32262,0.112085 -2.40012,0.250874 -3.3125,0.449218 -0.91239,0.198345 -1.65133,0.225547 -2.66016,1.234375 -0.68425,0.684246 -0.64933,1.034839 -0.71289,1.289063 -0.0636,0.254224 -0.0855,0.434679 -0.10352,0.615234 -0.0361,0.361111 -0.043,0.714235 -0.043,1.144531 0,1.22675 0.28176,1.771809 0.66796,2.953125 0.3862,1.181317 0.94127,2.702427 1.67579,4.603513 l 0.004,0.01 0.002,0.008 c 1.32034,3.33968 2.37383,5.5158 3.40625,7.25781 l -0.38085,50.05469 v 0.008 c 0,7.35321 0.0635,12.93754 0.19335,16.78907 0.0649,1.92576 0.1451,3.41217 0.25,4.51953 0.0525,0.55368 0.10755,1.00631 0.19141,1.43359 0.0419,0.21364 0.0875,0.41888 0.17578,0.67578 0.0882,0.25691 0.12958,0.57489 0.68946,1.13477 1.23809,1.23809 2.13513,1.13507 3.30078,1.28711 1.16564,0.15204 2.5863,0.21289 4.35547,0.21289 7.58666,0 15.90287,-1.51272 24.96875,-4.47656 l 0.0137,-0.004 0.0137,-0.004 c 4.7234,-1.60417 9.18748,-3.79204 13.37305,-6.55273 l 0.004,-0.004 0.006,-0.002 c 4.25228,-2.83485 8.07438,-6.07929 11.45313,-9.72461 3.56517,-3.83942 6.37753,-8.48239 8.43945,-13.86133 l 0.002,-0.006 0.002,-0.008 c 2.07722,-5.50916 3.10547,-11.49605 3.10546,-17.90625 0,-13.10599 -5.30938,-23.97197 -15.56835,-31.80469 l -0.004,-0.004 C 264.36972,92.53606 250.08756,88.759766 231.99219,88.759766 Z m 283.26367,0.255859 c -2.63533,0 -5.47433,0.642872 -8.57422,1.828125 l -0.0117,0.0059 -0.0117,0.0039 c -1.50969,0.594728 -2.69681,1.158716 -3.67968,1.84375 -0.98288,0.685033 -2.12696,1.624114 -2.12696,3.425781 0,0.502 0.0252,0.608501 0.0684,1.255859 0.0432,0.647359 0.10788,1.566896 0.19336,2.763674 0.15876,2.22266 0.25,6.79734 0.25,13.51758 l -0.51172,46.32226 v 0.0137 c 0,7.6134 0.0674,12.25355 0.26563,14.4336 0.1954,2.14943 0.7588,4.53421 1.65429,7.2207 0.45829,1.37487 0.89123,2.45477 1.44336,3.375 0.27607,0.46011 0.57769,0.89115 1.05078,1.30859 0.4731,0.41744 1.22973,0.86524 2.18165,0.86524 3.10685,0 6.42752,-1.11984 10.14257,-3.11328 1.81887,-0.97598 3.21721,-1.82597 4.29102,-2.66407 0.5369,-0.41904 0.99852,-0.82753 1.41016,-1.3496 0.41163,-0.52208 0.86328,-1.21766 0.86328,-2.28516 v -0.75586 l -0.41993,-0.63086 c -1.83169,-2.74754 -2.922,-5.74998 -3.30664,-9.13477 l -0.002,-0.0137 -0.002,-0.0137 c -0.11559,-0.92473 -0.23588,-4.70545 -0.23633,-10.55078 v -0.0137 c 0,-0.003 0,-0.003 0,-0.006 l 0.25586,-31.34961 v -0.01 c 0,-19.01064 0.27978,-30.448519 0.61719,-32.945309 l 0.0234,-0.167969 v -0.167968 c 0,-0.71975 -0.3629,-1.434986 -0.7207,-1.820313 -0.3578,-0.385326 -0.68015,-0.553246 -0.94141,-0.673828 -0.52251,-0.241163 -0.88989,-0.299618 -1.29101,-0.361328 -0.80224,-0.123421 -1.70156,-0.15625 -2.875,-0.15625 z m 181.24805,0 c -2.52898,0 -5.12358,0.60799 -7.75586,1.734375 -2.46339,1.005946 -4.37813,2.067578 -5.78907,3.478516 -0.79312,0.793121 -0.6766,1.09252 -0.74609,1.367187 -0.0695,0.274667 -0.10315,0.500624 -0.13477,0.75 -0.0632,0.498752 -0.10303,1.076738 -0.13671,1.806641 -0.0674,1.459805 -0.0977,3.498566 -0.0977,6.164066 v 0.0156 l 0.22461,16.70313 c -10.41746,0.81158 -18.96257,4.48891 -24.94727,11.32617 -0.001,0.001 -0.003,0.002 -0.004,0.004 -6.35891,7.18214 -9.57813,16.06924 -9.57813,26.22266 0,6.12442 1.85692,11.79123 5.47852,16.71289 3.73304,5.07311 9.20549,7.80274 15.58203,7.80274 6.0041,0 11.13947,-1.88486 15.03906,-5.42774 0.58299,2.09111 1.35992,4.01738 2.55469,5.58984 3.4e-4,4.5e-4 -3.4e-4,0.002 0,0.002 0.31246,0.41592 0.60581,0.77461 1,1.125 0.39818,0.35394 0.90347,0.88672 2.14258,0.88672 3.09816,0 6.40886,-1.11662 10.11133,-3.09961 1.84154,-0.92232 3.27126,-1.73356 4.36523,-2.54102 0.55134,-0.40694 1.02523,-0.80659 1.45312,-1.32617 0.4279,-0.51958 0.90625,-1.22807 0.90625,-2.31641 v -1.03515 l -0.73242,-0.73242 c -1.68607,-1.68607 -2.96049,-4.52753 -3.51367,-8.79493 l -0.006,-0.0449 -0.008,-0.0449 c -0.3966,-2.3796 -0.73242,-12.20222 -0.73242,-28.13281 0,-15.92169 0.33903,-30.94225 1.01953,-45.062503 l 0.004,-0.06055 v -0.06055 c 10e-6,-0.693709 -0.33708,-1.394884 -0.68554,-1.785157 -0.34846,-0.390272 -0.67154,-0.565619 -0.9336,-0.691406 -0.52411,-0.251573 -0.89011,-0.311793 -1.28515,-0.375 -0.79008,-0.126412 -1.66159,-0.160156 -2.79492,-0.160156 z m -180.39844,2.677734 c -0.008,0.0598 -0.008,0.284445 -0.0156,0.347657 -5e-5,-0.0056 -0.006,-0.0081 -0.006,-0.01367 z m -284.11328,2.066407 c 17.40077,0 30.50734,3.645521 39.5625,10.617184 l 0.004,0.002 0.004,0.004 c 9.19185,7.01483 13.60937,16.02796 13.60937,27.83594 0,5.87483 -0.93499,11.23527 -2.78125,16.13477 -1.86322,4.85917 -4.34172,8.91653 -7.43164,12.24414 v 0.002 h -0.002 c -3.10358,3.3486 -6.61573,6.33252 -10.55078,8.95703 -3.83035,2.5264 -7.89386,4.51714 -12.20898,5.98438 -8.67941,2.83659 -16.48895,4.22656 -23.40625,4.22656 -1.64417,0 -2.91197,-0.0679 -3.70899,-0.17188 -0.0109,-0.001 -0.0108,-0.004 -0.0215,-0.006 -0.002,-0.0177 -0.002,-0.019 -0.004,-0.0371 -0.0871,-0.91931 -0.16738,-2.34522 -0.23047,-4.21679 -0.12602,-3.73874 -0.19125,-9.2902 -0.1914,-16.60157 v -0.0117 c 0,-0.003 0,-0.004 0,-0.008 l 0.39062,-51.28906 -0.4082,-0.6289 c -0.73373,-1.13395 -1.92983,-3.634 -3.34961,-7.222661 l -0.002,-0.0039 c -0.71514,-1.851114 -1.24712,-3.315183 -1.58593,-4.351562 -0.21169,-0.647529 -0.20808,-0.648655 -0.26172,-0.873047 0.55711,-0.09661 1.15864,-0.195978 2.0957,-0.275391 2.38944,-0.202494 5.9091,-0.310546 10.47852,-0.310546 z m 283.26367,0.255859 c 0.36483,0 0.44952,0.02495 0.73828,0.03516 -0.39323,4.742242 -0.55078,14.233279 -0.55078,31.257809 l -0.25586,31.34961 v 0.01 c 0,5.90597 0.0505,9.3719 0.27539,11.17773 0.39839,3.48719 1.58941,6.69559 3.27539,9.67578 -0.68296,0.52631 -1.86506,1.27554 -3.51367,2.16016 -2.84876,1.5286 -5.11033,2.18194 -6.89258,2.35938 -0.22112,-0.43141 -0.4896,-0.99224 -0.81641,-1.97266 -0.81116,-2.43351 -1.27203,-4.48657 -1.41796,-6.0918 -0.14287,-1.57154 -0.2457,-6.40271 -0.2461,-13.95312 v -0.0176 c 0,-0.005 0,-0.004 0,-0.01 l 0.51172,-46.32226 v -0.0137 c 0,-6.76243 -0.0791,-11.31901 -0.26172,-13.875004 -0.0852,-1.192557 -0.14923,-2.107592 -0.1914,-2.740234 -0.0125,-0.187657 -0.009,-0.112455 -0.0176,-0.273438 0.43441,-0.296047 1.31836,-0.757241 2.58594,-1.257812 2.69827,-1.03066 4.97763,-1.498047 6.77734,-1.498047 z m 181.24805,0 c 0.31285,0 0.37278,0.0209 0.62695,0.0293 -0.61986,13.602148 -0.95117,27.950298 -0.95117,43.166018 0,15.94616 0.1731,25.12697 0.79687,28.9082 0.51207,3.91008 1.61852,7.19034 3.41211,9.75977 -0.72537,0.49487 -1.70288,1.09558 -3.21094,1.84961 l -0.0332,0.0156 -0.0312,0.0176 c -2.89733,1.55466 -5.20014,2.21709 -6.99219,2.37695 -1.22108,-1.64864 -2.08616,-4.02435 -2.39257,-7.31836 l 0.01,0.23047 c 0,-0.40578 -0.0131,-0.96979 -0.48242,-1.67383 -0.46936,-0.70404 -1.5631,-1.20898 -2.27344,-1.20898 h -0.75586 l -1.40625,0.9375 -0.26953,0.38476 c -3.14032,4.48618 -7.47091,6.61329 -13.95117,6.61329 -5.05813,0 -8.63173,-1.79341 -11.55469,-5.76563 -3.0344,-4.12367 -4.50586,-8.61042 -4.50586,-13.75 0,-9.12644 2.74913,-16.61946 8.33008,-22.91797 l 0.006,-0.006 0.006,-0.006 c 5.48188,-6.26501 13.19989,-9.57439 23.79492,-9.90039 l 2.45703,-0.0742 -0.29101,-21.40234 0.002,0.0352 c 0,-2.62518 0.0312,-4.62007 0.0918,-5.933598 0.0196,-0.425371 0.0433,-0.64317 0.0664,-0.912109 0.71958,-0.607408 1.79017,-1.34167 3.66016,-2.103516 l 0.0215,-0.0078 0.0195,-0.0098 c 2.14172,-0.917879 4.06745,-1.333984 5.80079,-1.333984 z m -455.55274,9.464845 c -0.58672,0 -1.03504,0.008 -1.43945,0.0391 -0.20221,0.0156 -0.37705,0.025 -0.6836,0.0957 -0.15327,0.0354 -0.33185,0.0639 -0.69921,0.26172 -0.15806,0.0851 -0.38254,0.25206 -0.62305,0.49805 l 0.0137,-0.0352 c -0.0222,0.0222 -0.005,0.0215 -0.0254,0.043 -0.0349,0.0362 -0.0535,0.0303 -0.0898,0.0723 -0.0398,0.0459 -0.0439,0.16843 -0.084,0.22461 -0.2491,0.35335 -0.46397,0.69882 -0.52734,0.90039 -0.0873,0.27767 -0.13343,0.51035 -0.17774,0.76172 -0.0886,0.50274 -0.15138,1.07228 -0.21093,1.78125 -0.11911,1.41793 -0.21174,3.36887 -0.28711,5.91015 -0.15076,5.08258 -0.22657,12.4998 -0.22657,22.28321 0,9.7834 0.0758,17.19867 0.22657,22.28125 0.0754,2.54128 0.168,4.49418 0.28711,5.91211 0.0596,0.70896 0.12232,1.27655 0.21093,1.77929 0.0443,0.25137 0.0905,0.48405 0.17774,0.76172 0.0873,0.27767 0.0868,0.60049 0.72656,1.24024 0.96922,0.96921 1.49358,0.82944 1.99024,0.90039 0.49665,0.071 0.98886,0.0879 1.57031,0.0879 1.55423,0 3.28972,-0.36151 5.52344,-0.98633 2.5002,-0.6743 5.21995,-1.86688 8.24023,-3.55469 l 0.01,-0.006 0.01,-0.006 c 3.18035,-1.81734 6.09169,-4.04872 8.71875,-6.67578 2.7693,-2.76929 5.01909,-6.39365 6.82031,-10.80664 l 0.002,-0.008 0.004,-0.008 c 1.8262,-4.56549 2.73828,-9.41981 2.73828,-14.4961 0,-5.07388 -0.90554,-9.53571 -2.83203,-13.29492 -1.82829,-3.65167 -4.04599,-6.53921 -6.74218,-8.54102 -2.51251,-1.94874 -5.37765,-3.51677 -8.56641,-4.70117 h -0.002 c -4.83895,-1.7922 -9.53127,-2.71484 -14.05274,-2.71484 z m 0.4375,5.04297 c 3.71832,0.0555 7.66257,0.79972 11.87891,2.36133 2.77042,1.02927 5.18205,2.35687 7.26953,3.98046 l 0.0215,0.0176 0.0254,0.0176 c 1.90068,1.40791 3.68763,3.62915 5.26758,6.78906 l 0.006,0.0117 0.006,0.0117 c 1.48496,2.89568 2.2832,6.53848 2.2832,11.01953 0,4.48105 -0.79372,8.67083 -2.38086,12.63867 -1.61066,3.94108 -3.54195,6.96774 -5.71875,9.14453 -2.31926,2.31927 -4.86555,4.26649 -7.65429,5.86133 -2.77296,1.54859 -5.16815,2.57179 -7.09961,3.0918 l -0.0117,0.004 -0.0117,0.004 c -1.87006,0.52362 -3.14159,0.70632 -3.86914,0.74024 -0.005,-0.0566 -0.009,-0.0675 -0.0137,-0.12696 -0.1049,-1.24873 -0.19948,-3.14724 -0.27344,-5.64062 -0.14791,-4.98676 -0.22266,-12.37488 -0.22266,-22.13281 0,-9.75793 0.0747,-17.14801 0.22266,-22.13477 0.074,-2.49338 0.16854,-4.39189 0.27344,-5.64062 6.9e-4,-0.008 0.001,-0.009 0.002,-0.0176 z m 177.48242,6.09179 -0.1875,2.29688 c -0.31735,3.88752 -1.61922,10.95282 -3.91211,20.88867 -1.40146,6.073 -2.69079,10.6118 -3.90625,14.37891 -0.3586,-1.29358 -0.58962,-1.62076 -0.98242,-3.31055 -1.11422,-4.79328 -2.37804,-11.18131 -3.78125,-19.13281 l 0.008,0.0547 c -0.20215,-1.31403 -1.17628,-2.14502 -1.93945,-2.55274 -0.76317,-0.40772 -1.52361,-0.60556 -2.4043,-0.77148 -1.76136,-0.33185 -4.01947,-0.45899 -6.95898,-0.45899 -2.02885,0 -4.09227,0.18444 -6.1875,0.54883 -1.06494,0.18521 -1.9138,0.37515 -2.68945,0.66602 -0.38783,0.14543 -0.76271,0.30729 -1.18946,0.61914 -0.42674,0.31185 -1.02103,0.86102 -1.21679,1.83984 l -0.0254,0.125 -0.0117,0.12891 c -0.32003,3.36029 -1.22995,8.00061 -2.7461,13.8125 -0.76539,2.93402 -1.52121,5.45475 -2.25,7.56836 -2.01333,-6.55353 -4.30165,-16.96649 -6.68945,-31.03516 l -0.35351,-2.08203 h -2.11133 c -2.98174,0 -5.74349,0.31622 -8.2793,0.9707 -2.32293,0.53775 -4.0591,1.08016 -5.4668,1.97266 -0.45666,0.27509 -0.83402,0.51722 -1.19336,0.80469 -0.18602,0.14881 -0.3694,0.30227 -0.59765,0.57617 -0.22825,0.27389 -0.66016,0.67543 -0.66016,1.75976 0,4.99878 2.29287,14.90012 6.74414,31.25 2.22192,8.16128 3.97444,14.35958 5.26758,18.62696 0.64657,2.13368 1.17627,3.77974 1.60742,4.98242 0.21558,0.60134 0.40378,1.08955 0.59375,1.51172 0.18202,0.40448 0.15803,0.6801 0.93555,1.38672 1.04746,1.00295 1.63805,0.85988 2.29297,0.94531 0.67498,0.088 1.42401,0.11719 2.33984,0.11719 1.99257,0 4.41031,-0.33189 7.39453,-0.94532 1.4814,-0.26274 2.69749,-0.52604 3.69141,-0.82422 1.00711,-0.30213 1.76943,-0.45106 2.71289,-1.39453 l 0.0684,-0.0684 0.0625,-0.0723 c 0.64321,-0.75041 0.68545,-1.09529 0.94726,-1.72852 0.26182,-0.63323 0.5542,-1.42402 0.89454,-2.41211 0.6786,-1.97013 1.54595,-4.71708 2.61328,-8.25976 l 0.002,-0.008 c 1.10494,-3.52753 1.74736,-6.13623 2.62305,-9.20898 0.68467,3.03279 1.47423,6.24994 2.43359,9.76758 1.03159,3.7825 1.90327,6.7269 2.63672,8.88281 0.36673,1.07795 0.6964,1.95741 1.01758,2.68164 0.32118,0.72424 0.49711,1.24516 1.21289,1.96094 l 0.28711,0.28711 0.36328,0.18164 c 1.65163,0.82581 3.12383,0.77539 5.4707,0.77539 2.37408,0 4.93033,-0.22755 7.67774,-0.66992 1.33262,-0.17325 2.41298,-0.34691 3.27929,-0.54492 0.8828,-0.20179 1.42091,-0.0147 2.58594,-1.17969 0.5951,-0.5951 0.53809,-0.72445 0.65625,-0.96485 0.11816,-0.24039 0.22705,-0.49252 0.35156,-0.79492 0.24904,-0.60479 0.55045,-1.40038 0.91993,-2.42187 0.73762,-2.03933 1.7432,-4.97211 3.02343,-8.8125 l 0.006,-0.0156 c 2.66231,-7.81638 5.2755,-16.47359 7.84375,-25.97461 2.66836,-9.55442 4.06055,-16.16993 4.06055,-20.51171 0,-1.29267 -0.56771,-1.66732 -0.82813,-1.92774 -0.26041,-0.26042 -0.46191,-0.39844 -0.66992,-0.53711 -0.39476,-0.26318 -0.82592,-0.49137 -1.34765,-0.7539 -3.72746,-2.05544 -8.33025,-2.99415 -13.73438,-2.99415 z m 192.25586,3.20118 c -2.74752,0 -4.93238,0.0924 -6.64648,0.30664 -1.7141,0.21426 -2.92269,0.16097 -4.33789,1.57617 l -0.0508,0.0527 -0.0488,0.0547 c -1.1523,1.29634 -1.96582,3.01022 -3.11328,5.6582 l -0.0156,0.0332 -0.0117,0.0332 c -1.09514,2.73787 -1.71484,5.12146 -1.71484,7.32812 v 2.5 h 2.83398 l 0.20508,-0.0332 c 1.77586,-0.29597 4.81834,-0.47851 8.93164,-0.47851 5.12602,0 8.87078,0.55659 10.98633,1.39257 0.39441,0.15586 0.4614,0.30379 0.74024,0.46485 -2.66719,0.40396 -5.58551,1.05428 -9.11524,2.20898 -0.003,0.001 -0.006,0.003 -0.01,0.004 -3.59427,1.07914 -6.90562,2.52554 -9.91211,4.34765 -3.19268,1.93496 -5.93417,4.75652 -8.23243,8.3418 l -0.006,0.006 -0.004,0.008 c -2.34408,3.71146 -3.45899,8.23138 -3.45899,13.36719 0,5.34414 1.93855,10.04954 5.66993,13.48633 l 0.0254,0.0234 0.0273,0.0215 c 3.89443,3.39515 9.26493,4.96875 15.72266,4.96875 5.38351,0 10.30727,-1.42204 14.65039,-4.07812 0.29693,1.07732 0.50012,2.03035 1.05664,3.47851 0.46787,1.26215 0.92534,2.27662 1.54297,3.1543 0.61916,0.87986 1.59451,1.92383 3.22851,1.92383 3.29607,0 6.71897,-1.11261 10.29297,-3.125 l 0.006,-0.004 c 1.78012,-0.97937 3.15849,-1.84633 4.2207,-2.72266 1.0637,-0.87755 2.18946,-1.70301 2.18946,-3.6875 v -1.09375 l -0.80469,-0.74414 c -1.61201,-1.48801 -2.93713,-4.26954 -3.57227,-8.62695 -0.0789,-0.55227 -0.20027,-2.62948 -0.26367,-5.71484 -0.0634,-3.08537 -0.0957,-7.29776 -0.0957,-12.6211 v -6.52734 c 0,-8.25527 -2.57329,-14.89457 -7.84766,-19.09961 -5.27558,-4.29082 -13.02758,-6.18359 -23.06836,-6.18359 z m -154.8789,0.89453 c -2.27605,0 -4.65949,0.44508 -7.15039,1.27148 -2.4934,0.74215 -4.44372,1.60583 -5.88282,3.04492 -1.02001,1.02002 -0.85273,1.49093 -0.96484,2.06641 -0.11211,0.57548 -0.18264,1.20873 -0.24023,1.98047 -0.11519,1.54347 -0.16602,3.61794 -0.16602,6.29687 v 0.0176 l 0.38281,28.81641 c -9.2e-4,8.71252 -0.31324,14.9769 -0.86523,18.52539 l -0.0293,0.1914 v 0.19336 c 0,0.72645 0.37383,1.44204 0.72852,1.81446 0.35468,0.37242 0.66137,0.5235 0.90429,0.63281 0.48585,0.21863 0.80054,0.26432 1.13477,0.31445 0.66846,0.10027 1.37518,0.12305 2.29101,0.12305 2.06978,0 4.47617,-0.33139 7.31836,-0.95313 2.97725,-0.65127 5.31822,-1.5604 6.99414,-3.23632 1.02783,-1.02783 0.73297,-1.26678 0.80079,-1.59375 0.0678,-0.32698 0.10557,-0.63501 0.14257,-1.00196 0.074,-0.73389 0.12817,-1.67578 0.17188,-2.88867 0.0874,-2.42578 0.12891,-5.90932 0.12891,-10.49023 v -9.76172 l -0.12891,-4.76953 v -1.23047 l 0.74219,-1.79883 0.0254,-0.082 c 0.32508,-0.97524 1.13373,-2.17974 2.60351,-3.50977 1.29794,-1.10574 2.91416,-1.6914 5.26563,-1.6914 0.86507,0 1.28164,0.18344 1.77344,0.66406 0.49179,0.48062 1.04254,1.41508 1.4375,2.95898 v 0.008 l 0.002,0.006 c 0.83394,3.18413 1.32812,8.47755 1.32812,15.62304 0,7.0688 -0.42171,14.40094 -1.26562,21.9961 l -0.26563,2.38672 6.78516,1.02929 h 0.18945 c 1.98762,0 4.36866,-0.33308 7.26367,-0.94531 1.47259,-0.26888 2.62376,-0.53981 3.60352,-0.92578 0.49437,-0.19475 0.95518,-0.40225 1.45898,-0.81445 0.50381,-0.41221 1.18165,-1.24353 1.18165,-2.375 v 0.0644 l 0.38476,-15.00781 v -0.0332 c 0,-7.28274 -0.12886,-13.29142 -0.38867,-18.05468 l -0.002,-0.0254 -0.002,-0.0254 c -0.26095,-3.47944 -0.60549,-6.29387 -1.06836,-8.51562 -0.45239,-2.1715 -1.12424,-4.48476 -2.00195,-6.94727 -0.83345,-2.58194 -1.87346,-4.70194 -3.29297,-6.33984 -1.34551,-1.55252 -3.07154,-2.80151 -5.08203,-3.77148 -2.16039,-1.17694 -4.71135,-1.69922 -7.55859,-1.69922 -2.99191,0 -6.04655,0.92595 -9.13282,2.60937 -1.76923,0.94051 -3.08092,1.76152 -4.20703,2.58789 0.0598,-1.09419 0.0682,-2.18793 0.20508,-3.2832 l 0.0176,-0.1543 v -0.15625 c 0,-1.10666 -0.81572,-2.05572 -1.36719,-2.40039 -0.55147,-0.34467 -0.97173,-0.44007 -1.39062,-0.52734 -0.83779,-0.17454 -1.7017,-0.21289 -2.8125,-0.21289 z m -128,0.38476 c -10.60606,0 -19.45673,3.53494 -25.9043,10.53516 -6.25534,6.79928 -9.49219,14.88654 -9.49219,23.83594 0,8.75843 2.60107,16.22438 7.82617,21.91601 5.26999,5.74052 12.67136,8.61719 21.55274,8.61719 9.02881,0 16.57987,-3.30433 21.89648,-9.74023 5.30198,-6.40051 7.9961,-14.09898 7.9961,-22.7129 0,-3.64022 -0.49958,-6.98947 -1.54102,-10.02148 -1.00222,-3.00225 -2.20779,-5.44349 -3.77344,-7.32227 -1.44108,-1.72929 -3.26238,-3.34405 -5.42773,-4.88281 -1.25584,-0.97886 -2.45843,-1.67212 -3.67774,-2.1582 0.0731,-0.78935 0.2129,-1.62863 0.2129,-2.36719 0,-1.50222 0.20204,-2.75303 -1.24415,-4.19922 -0.93238,-0.93239 -1.33124,-0.79487 -1.80859,-0.90625 -0.47735,-0.11138 -0.98349,-0.18739 -1.59375,-0.25781 -1.22052,-0.14083 -2.83678,-0.24727 -4.91797,-0.33398 l -0.0527,-0.002 z m 233.98242,0 c -10.60606,0 -19.45477,3.53494 -25.90235,10.53516 -6.25534,6.79928 -9.49218,14.88654 -9.49218,23.83594 0,8.75843 2.60106,16.22438 7.82617,21.91601 5.26998,5.74052 12.67136,8.61719 21.55273,8.61719 9.02677,0 16.57616,-3.3033 21.89258,-9.73633 5.30383,-6.40117 8,-14.10136 8,-22.7168 0,-3.64022 -0.50153,-6.98947 -1.54297,-10.02148 -1.00222,-3.00225 -2.20778,-5.44349 -3.77343,-7.32227 -1.44108,-1.72929 -3.26044,-3.34405 -5.42579,-4.88281 -1.25595,-0.97895 -2.46026,-1.67213 -3.67968,-2.1582 0.0731,-0.78935 0.21289,-1.62863 0.21289,-2.36719 0,-1.50222 0.20204,-2.75303 -1.24414,-4.19922 -0.93239,-0.93239 -1.3293,-0.79487 -1.80664,-0.90625 -0.47735,-0.11138 -0.98349,-0.18739 -1.59375,-0.25781 -1.22052,-0.14083 -2.83678,-0.24727 -4.91797,-0.33398 l -0.0527,-0.002 z m -138.93164,0.72266 c 3.73832,0.23072 6.9097,0.90209 9.21094,2.17383 l 0.0449,0.0254 0.041,0.0195 c -0.19236,3.42548 -1.31314,9.35237 -3.71679,17.95898 l -0.002,0.01 -0.004,0.01 c -2.54831,9.42874 -5.13511,17.99653 -7.75977,25.70118 l -0.004,0.008 -0.002,0.008 c -1.27648,3.82946 -2.27461,6.7413 -2.98633,8.70899 -0.34269,0.94745 -0.61276,1.65232 -0.81054,2.13671 -0.0525,0.0185 -0.0597,0.0396 -0.11719,0.0527 -0.61053,0.13955 -1.58825,0.30398 -2.86524,0.46875 l -0.041,0.006 -0.0371,0.006 c -2.53686,0.40917 -4.84003,0.60742 -6.89844,0.60742 -1.78116,0 -2.5868,-0.21544 -2.75586,-0.21094 -0.0107,-0.0225 0.003,0.002 -0.008,-0.0215 -0.22282,-0.50243 -0.51624,-1.27229 -0.85352,-2.26367 -0.67454,-1.98276 -1.53046,-4.86106 -2.54687,-8.58789 -2.03029,-7.4444 -3.41756,-13.71968 -4.16406,-18.7793 l -0.31446,-2.13672 h -4.50195 l -0.4668,1.9043 c -1.2628,5.1354 -2.99959,11.23443 -5.20703,18.28125 l -0.004,0.0137 -0.004,0.0117 c -1.0615,3.52418 -1.92051,6.23578 -2.5625,8.09961 -0.32099,0.93191 -0.5883,1.65475 -0.78516,2.13086 -0.13584,0.32855 -0.10739,0.27629 -0.0859,0.26562 0.17736,-0.18314 0.0716,-0.0594 -0.52344,0.11914 -0.69955,0.20987 -1.77904,0.45538 -3.17188,0.70117 l -0.0351,0.006 -0.0352,0.008 c -2.8065,0.57781 -4.99125,0.84375 -6.40625,0.84375 -0.5719,0 -0.8925,-0.0275 -1.22461,-0.0527 -0.0776,-0.19736 -0.13192,-0.32081 -0.23047,-0.5957 -0.37951,-1.05866 -0.89587,-2.65383 -1.52929,-4.74414 -1.26686,-4.18063 -3.0131,-10.3548 -5.22852,-18.49219 -4.18881,-15.38583 -6.18071,-25.1141 -6.39648,-28.86719 0.47655,-0.29503 1.8458,-0.84482 3.90625,-1.32031 l 0.0332,-0.008 0.0332,-0.008 c 1.47563,-0.38258 3.27263,-0.47104 5.04102,-0.58399 2.9687,17.07167 5.66093,28.80354 8.40234,34.94531 0.10856,0.27081 0.23872,0.58056 0.58985,0.97071 0.35599,0.39555 1.1231,0.9082 2.00976,0.9082 0.88667,0 1.51389,-0.42349 1.85156,-0.73047 0.33768,-0.30698 0.50172,-0.56471 0.64454,-0.80273 l 0.043,-0.0703 0.0371,-0.0723 c 1.61102,-3.12727 3.11583,-7.5905 4.67578,-13.57031 1.39274,-5.33881 2.2398,-9.63873 2.67774,-13.24024 0.33133,-0.0913 0.60723,-0.18076 1.21875,-0.28711 1.8301,-0.31828 3.60621,-0.47461 5.33203,-0.47461 2.77782,0 4.85057,0.15023 6.0332,0.37305 0.31579,0.0595 0.35133,0.0889 0.51953,0.14258 1.33353,7.48714 2.55953,13.77734 3.65235,18.47851 1.1471,4.93472 2.10119,8.27034 3.16406,10.44922 l 0.68555,1.4043 h 3.66406 l 0.67383,-1.43945 c 2.04853,-4.37641 4.1224,-11.43274 6.44336,-21.49024 1.98326,-8.59413 3.10322,-14.62382 3.65625,-19.10742 z m 187.82812,2.99805 c 9.40637,0 15.98565,1.85983 19.92578,5.07031 l 0.01,0.008 0.0117,0.01 c 3.93571,3.13399 5.96875,7.92448 5.96875,15.19531 v 6.52734 c 0,5.34334 0.0311,9.58064 0.0957,12.72461 0.0646,3.14397 0.1354,5.07863 0.3125,6.31836 l 0.002,0.002 v 0.004 c 0.58317,4.00925 1.73909,7.30183 3.60352,9.80859 -0.67513,0.52004 -1.63799,1.17161 -3.10156,1.97657 l -0.0117,0.006 -0.0117,0.008 c -2.76779,1.56132 -5.12102,2.23514 -7.14844,2.37305 -0.2058,-0.34331 -0.47666,-0.82997 -0.80078,-1.70508 l -0.004,-0.0137 -0.006,-0.0156 c -0.82186,-2.13682 -1.28196,-3.72714 -1.39649,-4.4668 -0.0392,-0.48318 -0.077,-0.90544 -0.13086,-1.25586 -0.0308,-0.20055 -0.0543,-0.3728 -0.14453,-0.66601 -0.0451,-0.14661 -0.0874,-0.31823 -0.29297,-0.65234 -0.20561,-0.33412 -0.79532,-1.2168 -2.16015,-1.2168 h -0.75782 l -1.09961,0.73242 -0.0801,0.0645 c -4.09678,3.2465 -8.75265,4.83594 -14.31836,4.83594 -5.6427,0 -9.64937,-1.32289 -12.41016,-3.7168 -2.73587,-2.53175 -4.03516,-5.58351 -4.03516,-9.7832 0,-4.41777 0.93259,-7.91669 2.68164,-10.68945 1.96738,-3.0674 4.1737,-5.28046 6.61133,-6.75781 2.62264,-1.58948 5.5372,-2.86937 8.76563,-3.8379 l 0.0312,-0.01 0.0293,-0.01 c 5.07083,-1.66256 8.99929,-2.43554 11.50977,-2.43554 h 0.58984 l 2.16602,-1.08399 v -1.54492 c 0,-1.57254 -0.56761,-3.15289 -1.58203,-4.35547 -1.01442,-1.20258 -2.37924,-2.04648 -3.9668,-2.67383 -3.17512,-1.25468 -7.3689,-1.74218 -12.82422,-1.74218 -2.8471,0 -4.5835,0.20367 -6.53515,0.36718 0.21692,-0.83671 0.4956,-1.74775 0.91211,-2.79296 1.0045,-2.30925 1.84765,-3.69837 2.12304,-4.06055 0.0268,0.0607 0.45332,-0.15359 1.44336,-0.27735 1.3579,-0.16973 3.39692,-0.26757 6.02539,-0.26757 z m -154.8789,0.89453 c 0.23685,0 0.25383,0.0202 0.45312,0.0273 -0.11698,1.4189 -0.26562,2.83823 -0.26562,4.25781 0,1.07609 0.0258,1.89774 0.11523,2.61328 0.0447,0.35778 0.0835,0.6745 0.25977,1.14454 0.0881,0.23502 0.19831,0.52491 0.53711,0.91211 0.33879,0.38719 1.10537,0.90234 1.9707,0.90234 h 0.75781 l 1.39453,-0.93164 0.26758,-0.3711 c 0.29576,-0.41406 0.85794,-1.06692 1.65234,-1.86132 l 0.043,-0.043 0.0391,-0.0449 c 0.39169,-0.43087 2.07056,-1.66017 4.69921,-3.05664 l 0.0117,-0.006 0.0117,-0.008 c 2.54574,-1.38858 4.78281,-1.99804 6.74024,-1.99804 2.25444,0 3.95114,0.41336 5.19531,1.09765 l 0.0645,0.0352 0.0645,0.0312 c 1.53471,0.73082 2.68599,1.59577 3.53906,2.58008 0.79212,0.91398 1.62373,2.45351 2.32422,4.63281 l 0.0117,0.0371 0.0137,0.0391 c 0.82162,2.30056 1.42974,4.41196 1.82812,6.32422 0.38911,1.86772 0.72385,4.51109 0.97461,7.8418 0.25106,4.61212 0.38038,10.53043 0.38086,17.72656 l -0.35156,13.66992 c -0.49837,0.16029 -1.12351,0.34827 -2.20508,0.54492 l -0.0352,0.006 -0.0351,0.008 c -2.67086,0.56654 -4.74714,0.81948 -6.16211,0.82812 l -1.64063,-0.24805 c 0.69196,-6.9063 1.09375,-13.64309 1.09375,-20.15039 0,-7.35711 -0.44612,-12.89942 -1.48828,-16.88281 -0.54382,-2.12192 -1.40139,-3.93674 -2.78515,-5.28906 -1.38554,-1.35405 -3.31665,-2.08789 -5.26758,-2.08789 -3.27055,0 -6.25578,0.94915 -8.53906,2.90625 l -0.0234,0.0195 -0.0215,0.0195 c -1.92226,1.73004 -3.33087,3.58638 -4.02734,5.67578 l 0.0605,-0.16211 -1.08594,2.63477 v 2.32031 l 0.12891,4.73437 v 9.69532 c 0,4.54975 -0.0437,8.00033 -0.12696,10.31054 -0.0394,1.09358 -0.0896,1.88853 -0.14062,2.42969 -0.71305,0.51414 -1.95029,1.12902 -4.03907,1.58594 -2.56268,0.56059 -4.60829,0.8091 -6.11523,0.82031 0.44514,-4.07158 0.70117,-9.37506 0.70117,-16.81055 v -0.0176 l -0.38281,-28.78321 v -0.0117 -0.0215 c 6.1e-4,-2.59028 0.0547,-4.58475 0.15234,-5.89258 0.0395,-0.52975 0.0863,-0.85215 0.12891,-1.125 0.57942,-0.43923 1.64483,-1.03112 3.43164,-1.56054 l 0.041,-0.0117 0.041,-0.0117 c 2.10197,-0.70066 3.9728,-1.02539 5.60938,-1.02539 z m -128.03321,0.38672 c 1.96806,0.0833 3.5001,0.18743 4.48243,0.30078 0.0748,0.009 0.0856,0.0147 0.15429,0.0234 0.0252,0.14524 0.0645,0.17849 0.0645,0.37304 0,1.11334 -0.11408,2.38954 -0.35157,3.81445 l -0.48437,2.91016 h 2.95117 c 0.28,0 1.56732,0.40001 3.32227,1.77344 l 0.0488,0.0371 0.0469,0.0332 c 1.90885,1.3521 3.40958,2.71142 4.51758,4.04102 0.99139,1.18967 2.00297,3.0968 2.87695,5.71875 l 0.004,0.01 0.004,0.0117 c 0.83457,2.42783 1.27149,5.21818 1.27149,8.40234 0,7.5979 -2.25478,13.9799 -6.84961,19.5254 v 0.002 l -0.002,0.002 C 335.8601,176.41627 330.09766,179 322.23047,179 c -7.84396,0 -13.58179,-2.3279 -17.86914,-6.99805 -4.33223,-4.71903 -6.50977,-10.73892 -6.50977,-18.53515 0,-7.77503 2.65058,-14.44905 8.16992,-20.44922 l 0.002,-0.002 c 5.49207,-5.96168 12.67741,-8.9107 22.1914,-8.91796 z m 233.98243,0 c 1.96929,0.0833 3.49967,0.18738 4.48242,0.30078 0.0746,0.009 0.0857,0.0147 0.15429,0.0234 0.0253,0.14527 0.0645,0.17842 0.0645,0.37304 0,1.11334 -0.11213,2.38954 -0.34961,3.81445 l -0.48438,2.91016 h 2.95117 c 0.28001,0 1.56733,0.40001 3.32227,1.77344 l 0.0469,0.0371 0.0488,0.0332 c 1.90886,1.3521 3.40958,2.71142 4.51758,4.04102 0.99139,1.18967 2.00297,3.0968 2.87695,5.71875 l 0.004,0.01 0.002,0.0117 c 0.83457,2.42783 1.27344,5.21818 1.27344,8.40234 0,7.5979 -2.25477,13.9799 -6.84961,19.5254 v 0.002 l -0.002,0.002 C 569.84447,176.41627 564.08204,179 556.21484,179 c -7.84396,0 -13.58179,-2.3279 -17.86914,-6.99805 -4.33222,-4.71903 -6.50976,-10.73892 -6.50976,-18.53515 0,-7.77503 2.65057,-14.44905 8.16992,-20.44922 l 0.002,-0.002 c 5.49207,-5.96168 12.67546,-8.9107 22.18946,-8.91796 z m -102.3418,2.76953 c -0.0244,0.0244 -0.0345,0.0422 -0.0586,0.0664 -0.006,0.007 -0.0171,0.0126 -0.0234,0.0195 z m 137.8418,3.50195 0.008,0.008 c -0.0732,0.0115 -0.22923,0.006 -0.30078,0.0176 z m -273.41797,2.42188 c -4.2507,0 -8.24564,1.99682 -11.64844,5.49414 l -0.0117,0.0117 -0.0117,0.0137 c -3.49663,3.69644 -5.16406,8.82647 -5.16406,14.90039 0,7.17578 2.52003,12.89089 7.58594,15.94726 2.17044,1.3639 4.86103,1.91407 7.9707,1.91407 3.65141,0 7.0618,-1.75157 9.86523,-4.73829 3.12511,-3.23392 4.53711,-7.89476 4.53711,-13.50586 0,-5.61583 -1.49543,-10.10213 -5.13867,-12.35156 -1.87227,-1.21473 -3.85016,-1.86942 -5.85547,-2.10156 0.009,-0.87061 0.10163,-1.69558 0.29688,-2.47656 l 0.77539,-3.10742 z m 233.98437,0 c -4.2507,0 -8.24564,1.99682 -11.64844,5.49414 l -0.0117,0.0117 -0.0117,0.0137 c -3.49664,3.69644 -5.16407,8.82647 -5.16407,14.90039 0,7.17578 2.52004,12.89089 7.58594,15.94726 2.17045,1.3639 4.85908,1.91407 7.96875,1.91407 3.65141,0 7.06375,-1.75157 9.86719,-4.73829 3.12511,-3.23392 4.53711,-7.89476 4.53711,-13.50586 0,-5.6183 -1.4978,-10.10702 -5.14453,-12.35546 -1.87006,-1.21222 -3.84692,-1.86559 -5.84961,-2.09766 0.009,-0.87061 0.0997,-1.69558 0.29492,-2.47656 l 0.77734,-3.10742 z m 124.67188,1.15234 c -5.99519,0 -11.1475,2.0433 -14.78516,6.07422 l -0.0117,0.0117 -0.01,0.0137 c -3.49089,3.97573 -5.23047,9.10875 -5.23047,14.96094 0,3.54021 0.83579,6.70946 2.63672,9.25195 l 0.0351,0.0488 0.0352,0.0469 c 2.02069,2.58199 5.21962,3.9043 8.7539,3.9043 3.78263,0 7.18694,-1.86699 9.35157,-5.05078 1.99662,-2.81747 3.25976,-5.14436 3.25976,-7.68946 0,-9.44947 0.13666,-15.74733 0.375,-18.60742 l 0.01,-0.10547 v -0.10351 c 0,-1.1885 -0.9219,-2.05097 -1.39063,-2.30664 -0.46872,-0.25567 -0.75399,-0.29618 -1.01562,-0.34375 -0.52327,-0.0951 -0.95686,-0.10547 -1.50195,-0.10547 z m -0.57227,2.54883 c -0.003,0.0374 -8.3e-4,0.1786 -0.004,0.21679 -2e-5,-0.004 -0.004,-0.006 -0.004,-0.01 z m -360.96484,1.96484 c -3e-5,0.012 -0.004,0.0231 -0.004,0.0352 0,1.23754 -0.13366,1.98267 0.52149,3.29297 l 0.68945,1.38281 h 2.57031 c 1.30915,0 2.73736,0.43291 4.39453,1.51367 l 0.0293,0.0195 0.0293,0.0176 c 1.62902,0.99844 2.77343,3.32754 2.77343,8.10937 0,4.7955 -1.14463,7.98064 -3.13476,10.03711 l -0.0156,0.0156 -0.0137,0.0156 c -2.14168,2.28939 -4.09675,3.17579 -6.23828,3.17579 -2.51297,0 -4.25343,-0.47534 -5.32227,-1.1504 l -0.0234,-0.0156 -0.0254,-0.0137 c -3.44701,-2.0682 -5.18555,-5.55983 -5.18555,-11.68164 0,-5.1815 1.31638,-8.83385 3.78516,-11.45117 1.75746,-1.8029 3.45917,-2.73044 5.16992,-3.30274 z m 233.98437,0 c -2e-5,0.012 -0.004,0.0231 -0.004,0.0352 0,1.23754 -0.13562,1.98267 0.51953,3.29297 l 0.6914,1.38281 h 2.56836 c 1.30915,0 2.73736,0.43291 4.39453,1.51367 l 0.0293,0.0195 0.0312,0.0176 c 1.62903,0.99844 2.77344,3.32754 2.77344,8.10937 0,4.7955 -1.14658,7.98064 -3.13672,10.03711 l -0.0137,0.0156 -0.0156,0.0156 c -2.14168,2.28939 -4.09675,3.17579 -6.23828,3.17579 -2.51297,0 -4.25147,-0.47534 -5.32031,-1.1504 l -0.0234,-0.0156 -0.0254,-0.0137 c -3.447,-2.0682 -5.18555,-5.55983 -5.18555,-11.68164 0,-5.17944 1.31437,-8.83016 3.78125,-11.44727 1.75907,-1.80556 3.46164,-2.73386 5.17383,-3.30664 z m 126.92969,0.53516 c -0.20292,3.5327 -0.3418,8.27664 -0.3418,16.52343 0,0.51749 -0.6103,2.36513 -2.35547,4.82422 l -0.0156,0.0234 -0.0137,0.0215 c -1.41997,2.09614 -2.87216,2.87109 -5.22657,2.87109 -2.41095,0 -3.72789,-0.63733 -4.77343,-1.94922 -1.07736,-1.54682 -1.6875,-3.55931 -1.6875,-6.30273 0,-4.89111 1.33088,-8.62575 3.97461,-11.64454 2.55432,-2.82558 5.86575,-4.24108 10.43945,-4.36718 z m -57.10547,8.64843 c -6.15266,0 -11.6809,1.6454 -16.30078,4.94532 -3.12233,2.21867 -5.01563,5.47804 -5.01563,9.07422 0,2.38723 0.97902,4.68653 2.71485,6.30664 1.88776,1.76191 4.51595,2.46484 7.46484,2.46484 3.12288,0 6.14874,-0.93731 8.88672,-2.69336 3.22069,-2.00893 4.87891,-5.69449 4.87891,-9.91797 v -4.86523 c 0,-0.95761 -0.0104,-1.67975 -0.0352,-2.22461 -0.0124,-0.27243 -0.0245,-0.48724 -0.0606,-0.75195 -0.018,-0.13236 -0.0283,-0.26119 -0.12109,-0.55274 -0.0464,-0.14577 -0.092,-0.33443 -0.33008,-0.68359 -0.23807,-0.34917 -0.93086,-1.10157 -2.08203,-1.10157 z m -2.37305,5.15625 c 1.5e-4,0.0698 0.002,0.0854 0.002,0.15821 v 4.86523 c 0,3.10732 -0.81446,4.618 -2.53125,5.6836 l -0.0176,0.01 -0.0156,0.0117 c -2.03631,1.30906 -4.03971,1.90625 -6.20117,1.90625 -2.17111,0 -3.3805,-0.49172 -4.05273,-1.11914 -0.82418,-0.76923 -1.12695,-1.45558 -1.12696,-2.65234 0,-2.03318 0.75181,-3.46606 2.91602,-5.00196 l 0.002,-0.002 0.004,-0.002 c 3.15768,-2.25549 6.79989,-3.50389 11.02148,-3.85743 z"
           id="path11" />
        <path
           style="font-size:128px;font-family:'Bubblegum Sans';-inkscape-font-specification:'Bubblegum Sans';font-variant-ligatures:normal;text-align:start;baseline-shift:baseline;white-space:normal;display:inline;overflow:visible;vector-effect:none;stroke:none;stroke-linecap:butt;enable-background:accumulate;stop-color:#000000;stop-opacity:1"
           d="m 261.81523,156.28367 q 3.712,-3.712 6.272,-9.984 2.56,-6.4 2.56,-13.568 0,-7.168 -2.56,-12.16 -2.56,-5.12 -6.016,-7.68 -3.456,-2.688 -7.936,-4.352 -6.912,-2.56 -13.184,-2.56 -1.664,0 -1.664,0.128 -0.896,0.896 -0.896,30.208 0,29.312 0.896,30.208 0.256,0.256 1.792,0.256 1.664,0 4.864,-0.896 3.328,-0.896 7.68,-3.328 4.48,-2.56 8.192,-6.272 z m -39.68,2.432 0.384,-50.56 q -1.408,-2.176 -3.584,-7.68 -2.176,-5.631998 -2.176,-6.655998 0,-1.152 0.128,-1.28 1.28,-1.28 15.104,-1.28 26.624,0 41.088,11.135998 14.592,11.136 14.592,29.824 0,9.216 -2.944,17.024 -2.944,7.68 -7.936,13.056 -4.864,5.248 -11.008,9.344 -6.016,3.968 -12.8,6.272 -13.312,4.352 -24.192,4.352 -5.12,0 -5.888,-0.768 -0.768,-0.768 -0.768,-22.784 z m 127.488,-7.168 q 0,12.16 -7.424,21.12 -7.296,8.832 -19.968,8.832 -12.544,0 -19.712,-7.808 -7.168,-7.808 -7.168,-20.224 0,-12.544 8.832,-22.144 8.96,-9.728 24.064,-9.728 6.144,0.256 6.656,0.768 0.512,0.512 0.512,2.432 0,1.92 -0.384,4.224 1.92,0 4.864,2.304 3.072,2.176 4.992,4.48 1.92,2.304 3.328,6.528 1.408,4.096 1.408,9.216 z m -18.688,-8.96 q -2.944,-1.92 -5.76,-1.92 h -1.024 q -0.256,-0.512 -0.256,-2.176 0,-1.664 0.384,-3.2 -5.248,0 -9.856,4.736 -4.48,4.736 -4.48,13.184 0,9.984 6.4,13.824 2.432,1.536 6.656,1.536 4.352,0 8.064,-3.968 3.84,-3.968 3.84,-11.776 0,-7.808 -3.968,-10.24 z m 63.8719,-14.08 q 8.576,0 8.832,1.664 4.224,23.936 6.784,29.184 h 0.512 q 2.816,-6.016 6.272,-20.992 3.456,-14.976 3.968,-21.248 7.68,0 12.544,2.688 1.536,0.768 1.536,1.024 0,5.632 -3.968,19.84 -3.84,14.208 -7.808,25.856 -3.84,11.52 -4.352,12.032 -0.512,0.512 -4.48,1.024 -3.968,0.64 -7.296,0.64 -3.328,0 -4.352,-0.512 -1.152,-1.152 -4.224,-12.416 -3.072,-11.264 -4.224,-19.072 h -0.384 q -1.92,7.808 -5.248,18.432 -3.2,10.624 -3.968,11.52 -0.768,0.768 -5.12,1.536 -4.352,0.896 -6.912,0.896 -2.56,0 -2.944,-0.384 -1.024,-0.896 -7.68,-25.344 -6.656,-24.448 -6.656,-30.592 0,-0.256 1.28,-1.024 1.408,-0.896 4.736,-1.664 3.456,-0.896 7.68,-0.896 4.736,27.904 8.704,36.736 0.256,0.64 0.64,0 2.176,-4.224 4.48,-13.056 2.304,-8.832 2.816,-14.208 0.128,-0.64 3.072,-1.152 2.944,-0.512 5.76,-0.512 z m 64.51202,20.864 0.128,4.736 v 9.728 q 0,13.696 -0.512,14.208 -1.664,1.664 -5.76,2.56 -4.096,0.896 -6.784,0.896 -2.56,0 -2.56,-0.384 0.896,-5.76 0.896,-18.944 l -0.384,-28.8 q 0,-7.936 0.64,-8.576 1.408,-1.408 4.864,-2.432 3.456,-1.152 6.4,-1.152 3.072,0 3.072,0.64 -0.384,3.072 -0.384,6.144 0,3.072 0.384,3.072 l 0.384,-0.256 q 0.64,-0.896 1.92,-2.176 1.28,-1.408 5.376,-3.584 4.224,-2.304 7.936,-2.304 3.84,0 6.4,1.408 2.688,1.28 4.352,3.2 1.664,1.92 2.816,5.504 1.28,3.584 1.92,6.656 0.64,3.072 1.024,8.192 0.384,7.04 0.384,17.92 l -0.384,14.976 q 0,0.896 -4.224,1.664 -4.224,0.896 -6.784,0.896 l -4.224,-0.64 q 1.28,-11.52 1.28,-22.272 0,-10.88 -1.408,-16.256 -1.408,-5.504 -5.632,-5.504 -4.224,0 -6.912,2.304 -2.56,2.304 -3.328,4.608 l -0.896,2.176 z m 44.03202,10.624 0.512,-46.336 q 0,-10.112 -0.256,-13.695998 -0.256,-3.584 -0.256,-3.84 0,-1.28 4.224,-2.944 4.352,-1.664 7.68,-1.664 3.328,0 3.328,0.512 -0.64,4.736 -0.64,33.279998 l -0.256,31.36 q 0,8.832 0.256,10.88 0.64,5.632 3.712,10.24 0,1.28 -5.248,4.096 -5.248,2.816 -8.96,2.816 -1.024,0 -2.304,-3.84 -1.28,-3.84 -1.536,-6.656 -0.256,-2.816 -0.256,-14.208 z m 80.25595,-8.448 q 0,12.16 -7.424,21.12 -7.296,8.832 -19.968,8.832 -12.544,0 -19.712,-7.808 -7.168,-7.808 -7.168,-20.224 0,-12.544 8.832,-22.144 8.96,-9.728 24.064,-9.728 6.144,0.256 6.656,0.768 0.512,0.512 0.512,2.432 0,1.92 -0.384,4.224 1.92,0 4.864,2.304 3.072,2.176 4.992,4.48 1.92,2.304 3.328,6.528 1.408,4.096 1.408,9.216 z m -18.688,-8.96 q -2.944,-1.92 -5.76,-1.92 h -1.024 q -0.256,-0.512 -0.256,-2.176 0,-1.664 0.384,-3.2 -5.248,0 -9.856,4.736 -4.48,4.736 -4.48,13.184 0,9.984 6.4,13.824 2.432,1.536 6.656,1.536 4.352,0 8.064,-3.968 3.84,-3.968 3.84,-11.776 0,-7.808 -3.968,-10.24 z m 74.6239,7.04 q 0,16 0.384,18.688 1.024,7.04 4.352,10.112 0,1.408 -5.12,4.224 -4.992,2.816 -9.088,2.816 -1.152,0 -2.432,-3.456 -1.28,-3.328 -1.536,-4.992 -0.128,-1.664 -0.256,-1.664 l -0.384,0.256 q -6.784,5.376 -15.872,5.376 -9.088,0 -14.08,-4.352 -4.864,-4.48 -4.864,-11.648 0,-7.168 3.072,-12.032 3.2,-4.992 7.424,-7.552 4.224,-2.56 9.344,-4.096 7.808,-2.56 12.288,-2.56 l 0.256,-0.128 q 0,-6.272 -15.872,-6.272 -6.272,0 -9.344,0.512 h -0.128 q 0,-2.56 1.536,-6.4 1.664,-3.84 2.688,-4.992 1.152,-1.152 9.216,-1.152 14.592,0 21.504,5.632 6.912,5.504 6.912,17.152 z m -14.208,8.192 v -4.864 q 0,-2.816 -0.128,-2.816 -8.576,0 -14.848,4.48 -3.968,2.816 -3.968,7.04 0,2.688 1.92,4.48 1.92,1.792 5.76,1.792 3.968,0 7.552,-2.304 3.712,-2.304 3.712,-7.808 z m 59.26395,-34.56 -0.256,-18.944 q 0,-7.935998 0.384,-8.319998 1.536,-1.536 4.992,-2.944 3.584,-1.536 6.784,-1.536 3.2,0 3.2,0.512 -1.024,21.247998 -1.024,45.183998 0,23.936 0.768,28.544 0.896,6.912 4.224,10.24 0,1.28 -5.376,3.968 -5.248,2.816 -8.96,2.816 -0.384,0 -1.152,-1.024 -2.432,-3.2 -2.944,-8.704 0,-0.384 -0.256,-0.384 l -0.384,0.256 q -5.376,7.68 -16,7.68 -8.576,0 -13.568,-6.784 -4.992,-6.784 -4.992,-15.232 0,-14.464 8.96,-24.576 8.96,-10.24 25.6,-10.752 z m 0.256,13.44 q 0,-0.256 -1.408,-0.256 h -0.512 q -8.192,0 -12.928,5.248 -4.608,5.248 -4.608,13.312 0,4.736 2.176,7.808 2.304,2.944 6.784,2.944 4.608,0 7.296,-3.968 2.816,-3.968 2.816,-6.272 0,-14.208 0.384,-18.816 z"
           id="path12" />
      </g>
      <g
         id="path10"
         style="opacity:1">
        <path
           style="font-size:medium;font-family:'Bubblegum Sans';-inkscape-font-specification:'Bubblegum Sans';font-variant-ligatures:normal;text-align:start;baseline-shift:baseline;white-space:normal;display:inline;overflow:visible;vector-effect:none;fill:#c000c0;stroke:none;stroke-linecap:butt;enable-background:accumulate;stop-color:#000000;stop-opacity:1"
           d="m 347.24609,211.75977 c -2.17836,0 -4.42668,0.75462 -7.04492,2.02929 -1.28364,0.62493 -2.27124,1.16318 -3.07422,1.73828 -0.40148,0.28756 -0.7615,0.57383 -1.12695,1.01758 -0.36545,0.44376 -0.88249,1.19203 -0.73828,2.3457 l -0.0176,-0.26953 0.0566,3.39649 -0.42578,0.0234 -0.67578,0.67578 c -0.78236,0.78236 -0.89647,1.47452 -1.01367,2.09961 -0.11721,0.62508 -0.15039,1.2525 -0.15039,1.97265 0,0.67742 0.0175,1.22942 0.0762,1.7461 0.0293,0.25833 0.065,0.50511 0.15039,0.8125 0.0854,0.30739 0.13157,0.70578 0.74609,1.32031 l 0.7793,0.7793 0.625,-0.0274 c 0.008,0.88229 0.0234,1.44184 0.0234,2.66406 0,9.5262 -0.25716,16.08893 -0.69727,19.34571 l -0.32226,2.375 3.92187,0.69922 h 0.2207 c 2.38637,0 4.58487,-0.5427 6.33203,-1.83008 l 0.77735,-0.57422 0.1914,-0.94922 c 0.18658,-0.93286 0.14454,-1.55106 0.14454,-2.8418 v -0.0156 l -0.23829,-18.99219 0.0586,0.004 h 0.0781 c 1.08,0 1.69168,-0.53543 2.03321,-0.87696 0.33299,-0.33299 0.51224,-0.62012 0.68554,-0.91601 0.89259,-1.46729 1.26953,-3.19553 1.26953,-5.02735 0,-0.70612 -0.33679,-1.32621 -0.61914,-1.65039 -0.28234,-0.32417 -0.51164,-0.45829 -0.68164,-0.55273 -0.33999,-0.18889 -0.50058,-0.21572 -0.63281,-0.25 -0.26446,-0.0686 -0.3916,-0.078 -0.5332,-0.0937 -0.28321,-0.0315 -0.55731,-0.0454 -0.91211,-0.0586 -0.11427,-0.004 -0.3555,-0.002 -0.48438,-0.006 0.0409,-0.0625 0.0109,-0.0791 0.16797,-0.17969 l 0.0293,-0.0176 0.0273,-0.0195 c 0.6937,-0.47171 1.3318,-0.8248 1.89649,-1.07031 l 0.041,-0.0195 0.041,-0.0176 c 0.28424,-0.13594 0.46386,-0.2177 0.61719,-0.28516 h 1.35351 l 0.57031,-1.70898 c 0.34823,-1.04469 0.17579,-1.05632 0.17579,-1.50977 0,-1.04417 -0.30751,-1.82144 -0.69727,-2.68164 -0.16469,-0.41533 -0.31946,-0.78281 -0.58594,-1.19141 -0.14331,-0.21975 -0.31022,-0.46297 -0.64258,-0.74609 -0.33235,-0.28312 -0.92878,-0.66601 -1.77539,-0.66601 z m 137.66407,2.88085 c -1.24867,0 -2.48493,0.29715 -3.77149,0.78907 l -0.0117,0.004 -0.0117,0.006 c -0.62969,0.24806 -1.15829,0.48296 -1.70117,0.86133 -0.54287,0.37837 -1.46679,1.03336 -1.46679,2.56836 0,0.44867 0.0128,0.32686 0.0293,0.57422 0.0165,0.24736 0.0401,0.59286 0.0723,1.04297 0.0521,0.72933 0.0898,2.45208 0.0898,4.95898 l -0.0469,4.23047 c -0.47972,-0.75626 -1.05672,-1.44072 -1.82813,-1.92578 -1.62962,-1.0416 -3.52201,-1.58984 -5.46484,-1.58984 -4.20899,0 -7.93338,1.46133 -10.47071,4.35546 l -0.002,0.002 c -2.38993,2.73135 -3.64258,6.15716 -3.64258,9.85547 0,3.58668 1.02774,6.80711 3.1836,9.20703 2.21313,2.46368 5.49161,3.66015 9.15625,3.66015 3.3616,0 5.76441,-0.16623 7.78515,-1.5332 l 0.32618,-0.2207 0.24218,-0.31055 c 0.4214,-0.53939 0.64106,-1.18916 0.89844,-1.81836 0.12508,0.67691 0.22673,1.34035 0.47266,2.07813 0.19162,0.57487 0.37145,1.05594 0.68359,1.57617 0.15607,0.26011 0.33945,0.53998 0.69922,0.85742 0.35977,0.31744 1.00631,0.71484 1.85156,0.71484 1.56019,0 3.01458,-0.53145 4.54297,-1.35156 0.72553,-0.38931 1.30489,-0.7331 1.83203,-1.14453 0.26357,-0.20571 0.518,-0.42274 0.79297,-0.77148 0.27497,-0.34875 0.66016,-0.89006 0.66016,-1.82422 v -0.75586 l -0.41993,-0.63086 c -0.55169,-0.82754 -0.87031,-1.69625 -0.98828,-2.73438 v -0.0156 l -0.002,-0.0137 c -0.001,-0.009 -0.007,-0.40878 -0.01,-0.45899 0.51926,1.75356 1.29135,3.36918 2.48438,4.69727 2.21314,2.46368 5.49162,3.66015 9.15625,3.66015 3.3616,0 5.76442,-0.16623 7.78516,-1.5332 l 0.32617,-0.2207 0.24219,-0.31055 c 0.42684,-0.54636 0.65144,-1.20343 0.91015,-1.8418 0.35107,0.53456 0.61439,1.12849 1.08985,1.56641 l 0.0254,0.0215 0.0254,0.0234 c 1.81443,1.58182 4.25276,2.24805 6.92382,2.24805 1.60862,0 3.12608,-0.38206 4.56641,-0.96094 0.16868,0.42675 0.32722,0.8327 0.625,1.25586 0.36583,0.51987 1.09428,1.38477 2.48828,1.38477 1.59413,0 3.12857,-0.52983 4.62891,-1.375 0.46411,-0.25566 0.81283,-0.51503 1.18555,-0.77149 0.1493,0.24885 0.22248,0.53711 0.39843,0.76953 0.20886,0.27814 0.41955,0.53735 0.75196,0.82227 0.33531,0.28741 0.83601,0.74609 1.91601,0.74609 1.75869,0 3.62299,-0.36958 5.64453,-1.02929 2.21086,-0.67758 4.25927,-1.80997 6.08985,-3.34766 l 0.002,-0.002 0.002,-0.002 c 1.15716,-0.97564 1.9772,-2.18661 2.55664,-3.49023 0.44622,0.8543 0.95746,1.66752 1.60352,2.38672 2.21314,2.46368 5.49162,3.66015 9.15625,3.66015 3.3616,0 5.76442,-0.16623 7.78516,-1.5332 l 0.32617,-0.2207 0.24218,-0.31055 c 0.0254,-0.0325 0.0299,-0.0765 0.0547,-0.10937 0.2861,0.87142 0.706,1.69563 1.26172,2.42968 5.4e-4,7.1e-4 0.001,0.001 0.002,0.002 0.20836,0.27735 0.41842,0.53609 0.75,0.82031 0.33532,0.28741 0.83407,0.74609 1.91407,0.74609 1.75997,0 3.62518,-0.37062 5.64843,-1.03125 2.20992,-0.67767 4.25799,-1.80858 6.08789,-3.3457 l 0.002,-0.002 0.002,-0.002 c 2.02629,-1.70843 3.33594,-4.05137 3.33594,-6.5664 v -0.0371 -0.0352 c -0.0484,-1.69412 -0.73057,-3.33371 -1.82617,-4.64844 -0.96617,-1.1594 -2.07849,-2.12194 -3.32813,-2.83007 l 0.0156,0.008 c -0.87671,-0.50579 -1.34621,-0.87246 -1.79883,-1.22266 0.36097,-0.19385 0.6272,-0.37809 1.33398,-0.60351 1.15547,-0.34446 2.00567,-0.4668 2.14453,-0.4668 h 2.58789 l -0.0898,-2.58594 c -0.0467,-1.3547 -0.46288,-2.68285 -1.1582,-3.86133 -0.30748,-0.53669 -0.60126,-0.99861 -1.02149,-1.45117 -0.42549,-0.45822 -1.05614,-1.13476 -2.38281,-1.13476 -3.24618,0 -6.37562,0.99792 -9.16992,2.87304 -1.24484,0.83536 -2.22464,1.84994 -3.03516,2.92969 -0.49697,-1.34095 -1.23784,-2.54431 -2.44531,-3.30273 -1.62878,-1.04006 -3.51958,-1.58789 -5.46094,-1.58789 -4.20898,0 -7.93533,1.46133 -10.47265,4.35546 v 0.002 h -0.002 c -0.94946,1.0851 -1.57497,2.34933 -2.1582,3.62695 l -0.0859,-2.44922 c -0.0467,-1.35471 -0.46288,-2.68285 -1.1582,-3.86133 -0.30747,-0.53669 -0.59931,-0.99862 -1.01953,-1.45117 -0.4255,-0.45822 -1.0581,-1.13476 -2.38477,-1.13476 -3.24618,0 -6.37367,0.99792 -9.16797,2.87304 -1.77564,1.19156 -3.13131,2.67881 -3.94336,4.34766 -0.56557,-1.71429 -1.41232,-3.25812 -2.79296,-4.36133 -2.39491,-1.94549 -5.66725,-2.66601 -9.63086,-2.66601 -1.06753,0 -1.9334,0.0327 -2.6875,0.12695 -0.7541,0.0943 -1.36192,-0.13809 -2.53711,1.03711 l -0.0508,0.0508 -0.0488,0.0547 c -0.72564,0.81634 -0.97947,1.49108 -1.4336,2.53906 l -0.0156,0.0332 -0.0117,0.0332 c -0.45515,1.13787 -0.75586,2.18812 -0.75586,3.32812 v 2.5 h 2.65039 c -0.0464,0.0275 -0.10432,0.0385 -0.15039,0.0664 -1.43267,0.86828 -2.62687,2.11581 -3.5918,3.62109 l -0.006,0.006 -0.004,0.008 c -0.61256,0.9699 -0.98095,2.06795 -1.22461,3.21875 -0.18878,-0.0505 -0.33612,-0.16015 -0.54883,-0.16015 -0.26045,0 -0.61691,0.0693 -0.98828,0.21093 0.16396,-0.16867 0.38908,-0.28329 0.54492,-0.45898 2.03913,-2.26354 3.2793,-4.85123 3.2793,-7.57227 0,-2.53971 -1.01253,-5.03145 -3.08399,-6.33398 -1.62962,-1.0416 -3.52201,-1.58984 -5.46484,-1.58984 -4.20898,0 -7.93338,1.46133 -10.4707,4.35546 l -0.002,0.002 c -1.51958,1.73666 -2.39838,3.8126 -2.96875,6.00195 l 0.0547,-6.69726 v -0.01 c 0,-7.11732 0.14606,-11.62107 0.2168,-12.14453 L 488.6582,217.5 v -0.16797 c 0,-0.69308 -0.35136,-1.3841 -0.6875,-1.74609 -0.33613,-0.362 -0.62387,-0.50684 -0.84179,-0.60742 -0.43586,-0.20117 -0.67456,-0.22668 -0.90235,-0.26172 -0.45557,-0.0701 -0.8363,-0.0762 -1.3164,-0.0762 z m -44.30274,0.24024 c -2.05579,0 -4.09749,0.0655 -6.12305,0.19531 -0.99574,0.049 -1.75665,0.0974 -2.33398,0.15235 -0.28866,0.0275 -0.52385,0.0531 -0.7832,0.0996 -0.12968,0.0232 -0.25978,0.0452 -0.47852,0.11524 -0.18868,0.0604 -0.54684,0.0546 -1.13672,0.77344 -0.53936,0.60615 -0.64707,1.0794 -0.70117,1.37695 -0.0589,0.32413 -0.0644,0.55833 -0.0644,0.79492 0,0.753 0.11351,0.94568 0.22851,1.37695 0.11501,0.43128 0.27055,0.93754 0.47071,1.55469 l 0.008,0.0293 0.0117,0.0273 c 0.30719,0.87433 0.71435,1.49941 1.09961,2.17578 l -0.29883,28.96094 1.63867,0.61524 c 0.86473,0.32427 1.77185,0.44726 2.70313,0.44726 0.96376,0 1.98236,-0.1438 3.14062,-0.38867 1.2474,-0.22712 2.32017,-0.43735 3.37891,-1.49609 l 0.99218,-0.99219 -0.33007,-1.36328 c 0.003,0.0136 -0.16614,-1.292 -0.24414,-3.11719 -0.0564,-1.32003 -0.0866,-3.41823 -0.11914,-5.46094 0.16182,-0.0317 0.37668,-0.0689 0.52539,-0.0996 0.50908,1.42901 0.88339,2.58135 2.07617,5.32032 l 0.002,0.008 0.004,0.008 c 0.89393,2.01542 1.65904,3.63072 2.31836,4.88086 0.65932,1.25014 1.0805,2.06683 1.89453,2.88086 l 0.65234,0.65234 2.2168,0.17578 h 0.0996 c 1.96943,0 3.87831,-0.41716 5.62109,-1.24609 0.28969,-0.12758 0.54197,-0.24351 0.83985,-0.42969 0.15928,-0.0995 0.33296,-0.20601 0.58593,-0.45898 0.25297,-0.25297 0.78125,-0.71841 0.78125,-1.85352 0,-0.48066 -0.15999,-1.2889 -0.78125,-1.91015 -0.67384,-0.67384 -2.35387,-3.23832 -4.32422,-7.20899 l -0.002,-0.006 c -4.7e-4,-9.5e-4 -0.001,-0.001 -0.002,-0.002 -0.99636,-2.02456 -1.74086,-3.60159 -2.2168,-4.68945 -0.007,-0.0154 -0.007,-0.0199 -0.0137,-0.0352 1.67877,-1.03912 3.20274,-2.19889 4.36914,-3.61523 1.64474,-1.99719 2.58594,-4.38792 2.58594,-6.86914 0,-2.35056 -0.65138,-4.56781 -2.05078,-6.28321 -1.3141,-1.61083 -3.11971,-2.76656 -5.18946,-3.43359 -1.81565,-0.61508 -3.59044,-1.05338 -5.32226,-1.30078 -1.71649,-0.24522 -3.61993,-0.36133 -5.72852,-0.36133 z m 43.07422,2.11719 c -0.007,0.054 -9.2e-4,0.31761 -0.008,0.375 -4.1e-4,-0.0163 -0.0156,-0.0247 -0.0156,-0.041 z M 343.5,217.48242 c -0.0118,0.008 -0.0233,0.0179 -0.0352,0.0254 -0.008,0.005 -0.0155,0.008 -0.0234,0.0137 z m -1.07422,0.78711 c -0.63951,0.50576 -1.19657,1.15343 -1.31055,2.43359 -0.14099,0.96115 -0.23911,2.09589 -0.30273,3.52735 l -0.11523,2.60937 h 0.0664 v 4.28516 l 0.24024,19.21484 c -0.001,0.48082 -0.003,0.41927 -0.0195,0.74805 -0.30788,0.11819 -0.68756,0.19339 -1.09375,0.25977 0.34463,-3.96517 0.54493,-9.3392 0.54493,-17.26368 0,-2.41111 -0.0154,-4.1806 -0.0488,-5.35156 l -0.0566,-1.96094 0.0488,-0.002 -0.1211,-7.29687 c 0.41896,-0.28095 1.08926,-0.68041 2.13086,-1.1875 0.0143,-0.007 0.0229,-0.009 0.0371,-0.0156 z m 98.18164,1.61133 c 0.5798,0 0.97864,0.0745 1.51367,0.0937 -1.05232,0.0304 -2.10911,0.0901 -3.17382,0.26758 l -1.81055,0.30273 -0.25391,1.81836 c -0.25761,1.84625 -0.3125,5.24602 -0.3125,11.00195 v 2.74414 l 2.73242,-0.25585 c 1.39756,-0.13029 2.56387,-0.42928 3.76368,-0.70508 l -0.64649,0.37695 c 0.57817,-0.33726 -0.02,-0.0136 -0.70898,0.13867 -0.689,0.15231 -1.70377,0.34254 -3.00782,0.5625 l -2.10546,0.35547 0.0215,2.13477 c 0.0322,3.2319 0.0879,5.79603 0.16992,7.71484 0.0374,0.87586 0.12932,1.25503 0.17383,1.86328 -0.63055,0.13348 -0.99838,0.14905 -1.41602,0.1875 l 0.27344,-26.26562 -0.56836,-0.70118 c -0.0627,-0.0772 -0.37538,-0.73024 -0.66406,-1.43554 0.0626,-0.003 0.0778,-0.007 0.14258,-0.01 l 0.0176,-0.002 h 0.0195 c 1.92971,-0.1245 3.87675,-0.1875 5.83984,-0.1875 z m 43.01367,0.0566 c -0.11768,2.17373 -0.20117,4.3615 -0.20117,9.875 l -0.0976,11.75 v 0.01 c 0,2.22124 -0.002,3.42038 0.11523,4.36914 0.11376,0.99634 0.38405,1.95019 0.74805,2.86914 -0.0131,0.007 -0.0121,0.008 -0.0254,0.0156 -0.42439,0.22772 -0.52267,0.17606 -0.84375,0.29297 -0.11083,-0.43181 -0.25887,-0.92957 -0.28321,-1.19727 -0.0363,-0.39913 -0.0854,-2.27033 -0.0859,-5.07421 v -0.0156 c 0,-0.006 0,-0.005 0,-0.0117 l 0.1914,-17.36133 v -0.0137 c 0,-2.54909 -0.0257,-4.25179 -0.10156,-5.31445 -0.002,-0.0247 -0.002,-0.0326 -0.004,-0.0566 0.25653,-0.0936 0.3698,-0.0783 0.58789,-0.13672 z m -36.25,0.68164 c 0.88992,0.19908 1.75006,0.34038 2.70313,0.66406 l 0.0215,0.008 0.0195,0.006 c 1.31513,0.42184 2.19308,1.02309 2.85938,1.83985 0.5846,0.71661 0.92383,1.6336 0.92383,3.12305 0,1.29478 -0.40206,2.42459 -1.44532,3.6914 -1.07675,1.30749 -2.58826,2.47393 -4.63476,3.46875 l -1.4082,0.6836 v 1.56445 c 0,0.94831 0.17753,1.11997 0.33593,1.5625 0.15841,0.44252 0.36523,0.94558 0.63086,1.55273 0.53126,1.2143 1.29734,2.83583 2.31446,4.90235 l 0.002,0.002 0.002,0.004 c 1.15791,2.33419 2.14086,4.11065 3.08399,5.60156 -0.3932,0.0645 -0.73572,0.24789 -1.16016,0.25586 -0.18848,-0.28297 -0.26211,-0.35483 -0.60547,-1.00586 -0.5707,-1.08212 -1.29996,-2.61756 -2.16211,-4.56055 -1.71403,-3.93592 -2.70005,-6.68943 -2.72851,-6.82226 l -0.58594,-2.73243 c 1.24143,-0.47428 2.44109,-0.98255 3.40039,-1.75 l 0.002,-0.002 0.002,-0.002 c 2.09508,-1.68355 3.62109,-3.71256 3.62109,-6.17383 0,-2.2178 -1.49463,-4.38927 -3.5,-5.32813 -0.52385,-0.2537 -1.12054,-0.38103 -1.69141,-0.55273 z m -4.60351,4.30078 c 1.84685,0 3.21197,0.3052 4.13476,0.75586 l 0.0215,0.01 0.0215,0.01 c 0.74034,0.34435 0.61719,0.21108 0.61719,0.80469 0,0.29034 -0.26636,1.07773 -1.75,2.27148 -0.78587,0.6287 -2.30418,1.15375 -4.16406,1.57227 0.0351,-2.31064 0.0718,-4.33754 0.13672,-5.33984 0.32474,-0.0181 0.6622,-0.084 0.98242,-0.084 z m -48,0.23242 c -1.08365,0 -2.15682,0.24053 -3.18946,0.64844 -0.9683,0.35132 -1.81972,0.75223 -2.58007,1.44922 l -0.041,0.0371 -0.0371,0.0371 c -0.98281,0.98281 -0.73415,1.27954 -0.79492,1.59961 -0.0608,0.32007 -0.0873,0.60397 -0.11133,0.93554 -0.048,0.66315 -0.0664,1.48837 -0.0664,2.54493 v 0.0156 l 0.0312,2.45117 c -0.37847,-0.99952 -0.77759,-1.95185 -1.41993,-2.72265 -0.64373,-0.77248 -1.42373,-1.45607 -2.3164,-2.0918 -0.20852,-0.16229 -0.43903,-0.28479 -0.6543,-0.43164 0,-0.001 0,-0.003 0,-0.004 0,-0.70222 0.30707,-1.44683 -0.92578,-2.67968 -0.87906,-0.87906 -1.15039,-0.6931 -1.42774,-0.75782 -0.27734,-0.0647 -0.50984,-0.0965 -0.77343,-0.12695 -0.52719,-0.0608 -1.15584,-0.10138 -1.95703,-0.13477 l -0.0527,-0.002 h -0.0527 c -4.31273,0 -8.14904,1.50819 -10.86328,4.45508 -0.16038,0.17432 -0.2746,0.37328 -0.42579,0.55273 3.9e-4,-0.0733 0.0137,-0.12866 0.0137,-0.20312 0,-1.11091 -0.095,-2.15654 -0.75586,-3.23047 l -0.73047,-1.18945 h -1.39844 c -1.73701,0 -3.40544,0.52862 -4.94531,1.35742 -0.19215,-0.81172 -0.70583,-1.50901 -1.09766,-1.75391 -0.47147,-0.29467 -0.77236,-0.3484 -1.03125,-0.40234 -0.51778,-0.10787 -0.90224,-0.11328 -1.37304,-0.11328 -1.05367,0 -2.10849,0.20648 -3.16602,0.55664 -1.04984,0.3142 -1.98133,0.67469 -2.82617,1.51953 -0.55922,0.55922 -0.58455,0.869 -0.65625,1.0918 -0.0717,0.2228 -0.10036,0.37373 -0.125,0.51953 -0.0493,0.2916 -0.0707,0.54835 -0.0899,0.84961 -0.0383,0.6025 -0.0527,1.35783 -0.0527,2.33008 v 0.0117 l 0.0957,10.90625 c -9e-4,3.74058 -0.15142,6.31073 -0.29687,7.1211 l -0.0391,0.21875 v 0.22265 c 0,0.57956 0.2737,1.29425 0.65625,1.72461 0.38254,0.43037 0.77397,0.61641 1.0625,0.72461 0.57705,0.2164 0.88176,0.19532 1.16601,0.19532 2.89839,0 5.24183,-0.28565 7.01563,-1.9961 l 0.0156,-0.0156 0.0156,-0.0176 c 0.74257,-0.74257 0.6133,-0.96949 0.66211,-1.14844 0.0488,-0.17894 0.0622,-0.27939 0.0762,-0.37305 0.0279,-0.18731 0.0393,-0.32934 0.0508,-0.49414 0.023,-0.32958 0.0383,-0.72647 0.0508,-1.23828 0.025,-1.02362 0.0371,-2.4856 0.0371,-4.41601 v -4.22461 c 0,0.71223 -0.0447,0.27475 0.33398,-0.31446 0.8955,-1.28141 1.7279,-1.71208 3.27344,-1.73046 l 0.79883,0.12304 c -0.1836,0.92346 -0.28711,1.86982 -0.28711,2.83399 0,3.5851 1.10921,6.83513 3.34766,9.27343 2.28331,2.48719 5.57771,3.73829 9.23242,3.73829 3.74881,0 7.1394,-1.4648 9.41601,-4.22071 1.09359,-1.32066 1.91964,-2.7994 2.48243,-4.38281 -0.034,2.46474 -0.1097,4.67271 -0.25391,5.55859 l -0.0312,0.19922 v 0.20117 c 0,0.57956 0.27175,1.29425 0.6543,1.72461 0.38254,0.43037 0.77397,0.61641 1.0625,0.72461 0.57705,0.2164 0.88176,0.19532 1.16601,0.19532 2.81,0 5.01044,-0.15901 6.77149,-1.84961 l 0.11914,-0.11329 0.10156,-0.12695 c 0.63816,-0.79769 0.49592,-0.9728 0.53906,-1.17773 0.0432,-0.20494 0.0608,-0.35622 0.0781,-0.51953 0.0347,-0.32663 0.0551,-0.68228 0.0723,-1.125 0.0344,-0.88545 0.0508,-2.09859 0.0508,-3.6836 v -0.0117 l -0.0488,-5.08789 v -0.99609 c 0,0.53443 0.0303,-0.0819 0.61718,-0.93555 0.0419,-0.0609 0.026,-0.003 0.0586,-0.0488 0.0997,0.64761 0.22851,1.50467 0.22851,3.24024 0,2.13286 -0.13674,4.45726 -0.41601,6.9707 l -0.26368,2.37695 4.08985,0.64063 h 0.19336 c 0.89,0 1.84031,-0.12265 2.95703,-0.33203 0.6109,-0.11455 1.11695,-0.22634 1.69336,-0.47852 0.2882,-0.12609 0.60853,-0.27728 0.99609,-0.64062 0.38757,-0.36334 0.88672,-1.11243 0.88672,-2.00977 l -0.004,0.12696 0.19532,-3.85547 v -0.0625 c 0,-3.27245 -0.0463,-5.06748 -0.13477,-6.43164 0.0601,-0.0565 0.0485,-0.0616 0.22266,-0.17774 l 0.0449,-0.0312 0.0449,-0.0332 c 0.0178,-0.013 0.0291,-0.003 0.0371,-0.01 -0.11847,-0.10765 -0.0351,-0.0927 0.0762,0.40821 l 0.004,0.01 0.002,0.0117 c 0.15621,0.6769 0.24719,1.36536 0.27344,2.07422 l 0.002,0.0488 0.004,0.0488 c 0.0525,0.68293 0.0879,2.05969 0.0879,3.98437 0,1.80173 -0.16594,4.29231 -0.51172,7.4043 l -0.26562,2.37695 4.09179,0.63867 h 0.19336 c 0.921,0 1.8884,-0.14457 3.02735,-0.38476 0.59436,-0.10877 1.08404,-0.21227 1.62109,-0.42383 0.27437,-0.10809 0.57104,-0.22858 0.96484,-0.55078 0.39381,-0.32221 1.01563,-1.06147 1.01563,-2.09961 l 0.1914,-5.57422 v -0.043 c 10e-6,-2.99835 -0.0986,-5.90305 -0.29492,-8.7168 v -0.0195 l -0.002,-0.0176 c -0.18724,-2.20939 -0.80673,-4.39785 -1.81641,-6.52539 l -0.0156,-0.0312 -0.0156,-0.0312 c -1.21532,-2.38564 -3.80363,-3.91015 -6.5,-3.91015 -2.27245,0 -4.34493,1.02481 -6.11718,2.67187 -1.33907,-0.99234 -2.93655,-1.61523 -4.63477,-1.61523 -1.02559,0 -1.98091,0.31902 -2.90625,0.74804 -0.18222,-1.00025 -0.88825,-1.73237 -1.28516,-1.93945 -0.44999,-0.23478 -0.70495,-0.26654 -0.93554,-0.30664 -0.46119,-0.0802 -0.8154,-0.0859 -1.25586,-0.0859 z m -40.3086,2.70508 c -0.009,0.0849 -0.005,0.19488 -0.0137,0.28125 -1e-5,-0.002 -0.002,-0.004 -0.002,-0.006 z m 4.09571,0.13672 c -0.0176,0.0103 -0.0313,0.0267 -0.0488,0.0371 -0.0147,0.009 -0.0322,0.012 -0.0469,0.0215 z m 154.34375,2.1543 0.008,0.008 c -0.10342,0.0145 -0.2754,0.005 -0.375,0.0215 z m -118.64453,0.11523 c -0.0452,0.0525 -0.0966,0.0889 -0.14258,0.14649 l 0.12695,-0.14258 c 0.005,-8.1e-4 0.0107,-0.003 0.0156,-0.004 z m -1.04297,0.26953 c -0.003,0.14632 -0.0312,0.39235 -0.0312,0.52735 0,0.40423 0.005,0.71762 0.0332,1.04492 0.0142,0.16365 0.0211,0.31249 0.10156,0.62109 0.0403,0.1543 0.0758,0.34789 0.30274,0.72071 0.18759,0.30818 0.79763,0.84532 1.65625,1.05468 -0.13378,0.15799 -0.33937,0.25358 -0.45508,0.42188 -0.82109,1.19431 -1.49609,2.1471 -1.49609,3.76953 v 1.01953 l 0.0488,5.09961 c -2e-4,1.4188 -0.0176,2.44598 -0.043,3.20312 -0.0448,0.0114 -0.36037,0.0356 -0.45312,0.0625 0.0828,-1.36169 0.2168,-2.39918 0.2168,-4.39257 v -0.0176 l -0.14453,-11.26367 v -0.0117 -0.0195 c 4.8e-4,-0.78202 0.0211,-1.29193 0.043,-1.73438 0.0967,-0.0471 0.0906,-0.0534 0.22071,-0.10547 z m -38.89063,0.13867 c -0.002,0.15625 -0.0215,0.27722 -0.0215,0.4375 0,0.56851 0.008,0.99961 0.0293,1.36915 0.0109,0.18476 0.0175,0.33848 0.0625,0.59375 0.0225,0.12763 0.0353,0.2667 0.16993,0.59375 0.0673,0.16352 0.15175,0.38773 0.44726,0.72265 0.26605,0.30152 0.88931,0.70438 1.6543,0.79102 -0.35075,0.35894 -0.71225,0.70725 -1.00391,1.12695 l -0.0137,0.0195 -0.0137,0.0195 c -0.61867,0.92801 -1.1875,1.62013 -1.1875,3.11524 v 4.22461 c 0,1.90958 -0.0121,3.35054 -0.0352,4.29492 -3.5e-4,0.0146 -0.002,0.0169 -0.002,0.0312 -0.18642,0.0591 -0.37421,0.0678 -0.66797,0.1289 0.0938,-1.47376 0.23242,-2.58888 0.23242,-4.98437 v -0.01 l -0.0957,-10.88671 v -0.006 -0.0156 c 2.6e-4,-0.65386 0.0165,-1.04579 0.0312,-1.44531 0.11591,-0.0486 0.029,-0.023 0.19531,-0.0723 l 0.0391,-0.0117 0.041,-0.0117 c 0.057,-0.019 0.0835,-0.008 0.13867,-0.0254 z m 57.58203,0.008 c 1.25265,0 1.52558,0.18344 2.02344,1.15039 0.77184,1.63558 1.20978,3.21241 1.3418,4.76758 5e-5,5.9e-4 -5e-5,0.001 0,0.002 0.18573,2.67481 0.27899,5.44657 0.27929,8.31836 10e-6,0.005 0,0.009 0,0.0137 l -0.13281,3.8418 c -0.2392,0.0445 -0.35695,0.0482 -0.55469,0.0762 0.15841,-1.8708 0.35938,-3.87155 0.35938,-5.26172 0,-1.94922 -0.0287,-3.32183 -0.10156,-4.30078 -0.0392,-1.00305 -0.16918,-1.99486 -0.39258,-2.9668 -0.25195,-1.13101 -0.69064,-2.22927 -1.66602,-3.09765 -0.84916,-0.80566 -2.06903,-1.25391 -3.17187,-1.25391 -0.21877,0 -0.43438,0.0769 -0.6543,0.10547 0.94123,-0.87743 1.82076,-1.39453 2.66992,-1.39453 z m 128.46485,0.0371 c -0.71574,0.31396 -1.51478,0.5586 -2.09961,1.01757 -1.01201,0.79424 -1.9043,2.11602 -1.9043,3.59766 0,1.666 0.90328,2.55366 1.75195,3.32617 0.84868,0.77252 1.90393,1.47598 3.24219,2.24805 l 0.008,0.004 0.01,0.006 c 0.67036,0.37987 1.31734,0.92104 1.95117,1.68164 0.4957,0.59483 0.63827,1.02955 0.6582,1.5625 -0.0103,0.91886 -0.33155,1.67282 -1.54492,2.69726 -4.3e-4,3.6e-4 -0.002,-3.6e-4 -0.002,0 -0.001,0.001 -5.6e-4,0.003 -0.002,0.004 -1.36256,1.14365 -2.79382,1.92574 -4.34961,2.40039 l -0.0254,0.008 -0.0234,0.008 c -0.14094,0.0462 -0.20884,0.0246 -0.3457,0.0664 0.47606,-0.20517 1.01304,-0.31232 1.44336,-0.5957 1.65536,-1.09012 3.09179,-2.66923 3.09179,-4.77539 0,-1.70449 -1.00747,-2.92315 -2.09179,-3.83399 -0.93768,-0.78764 -1.96597,-1.47833 -3.07227,-2.06836 -0.70966,-0.37848 -1.36573,-0.87841 -1.99023,-1.52344 -0.47408,-0.51846 -0.5254,-0.76842 -0.5254,-0.9746 0,-0.91375 0.49197,-1.92381 2.54102,-3.29883 1.08502,-0.72811 2.1709,-1.22577 3.2793,-1.55664 z m 37.39258,0 c -0.71574,0.31396 -1.51479,0.5586 -2.09961,1.01757 -1.01201,0.79424 -1.9043,2.11602 -1.9043,3.59766 0,1.666 0.90327,2.55366 1.75195,3.32617 0.84868,0.77252 1.90393,1.47598 3.24219,2.24805 l 0.008,0.004 0.008,0.006 c 0.67036,0.37987 1.3193,0.92104 1.95313,1.68164 0.4957,0.59483 0.63827,1.02955 0.6582,1.5625 -0.0103,0.91886 -0.33155,1.67282 -1.54492,2.69726 -4.3e-4,3.6e-4 -0.002,-3.6e-4 -0.002,0 -0.001,0.001 -5.7e-4,0.003 -0.002,0.004 -1.36255,1.14365 -2.79577,1.92574 -4.35156,2.40039 l -0.0234,0.008 -0.0234,0.008 c -0.14165,0.0464 -0.21014,0.0244 -0.34766,0.0664 0.47633,-0.20524 1.01282,-0.31218 1.44336,-0.5957 1.65537,-1.09012 3.09375,-2.66923 3.09375,-4.77539 0,-1.70449 -1.00747,-2.92315 -2.0918,-3.83399 -0.93767,-0.78764 -1.96597,-1.47833 -3.07226,-2.06836 -0.71078,-0.37908 -1.36681,-0.88084 -1.99219,-1.52734 -0.46987,-0.51511 -0.52344,-0.76516 -0.52344,-0.9707 0,-0.91375 0.49197,-1.92381 2.54102,-3.29883 1.08502,-0.72811 2.1709,-1.22577 3.2793,-1.55664 z m -199.38282,0.20703 c 0.0342,0.001 0.0428,0.002 0.0762,0.004 l -0.0195,0.12891 h -0.84179 c 0.28786,-0.0171 0.47887,-0.13236 0.78515,-0.13281 z m 143.83399,0.0527 c 0.95061,0.27305 1.71957,0.61489 2.20898,1.01367 l 0.0117,0.01 0.01,0.008 c 1.05571,0.84066 1.65039,2.05907 1.65039,4.47656 v 2.44727 c 0,2.01 0.0105,3.60739 0.0351,4.80469 0.0246,1.1973 0.0357,1.87886 0.13282,2.55859 v 0.002 l 0.002,0.004 c 0.15101,1.0382 0.39306,2.01501 0.77344,2.90039 -0.35033,0.18319 -0.52648,0.17607 -0.80469,0.26953 -0.0652,-0.21726 -0.20308,-0.61492 -0.20703,-0.63867 -0.0136,-0.15797 -0.0235,-0.30989 -0.0488,-0.47461 -0.0175,-0.11389 -0.0286,-0.22278 -0.10547,-0.47265 -0.0384,-0.12494 -0.0745,-0.28219 -0.27344,-0.60547 -0.0995,-0.16164 -0.24006,-0.37791 -0.55859,-0.63672 -0.15927,-0.12941 -0.63767,-0.37655 -0.63867,-0.37696 -4.7e-4,-1.8e-4 -0.2209,-0.0432 -0.43946,-0.0859 1.08982,-1.12707 1.80469,-2.62581 1.80469,-4.17578 v -1.82422 c 0,-0.37094 -0.004,-0.65278 -0.0156,-0.9043 -0.006,-0.12576 -0.009,-0.23049 -0.0352,-0.42187 -0.0131,-0.0957 -0.0166,-0.19749 -0.10352,-0.47071 -0.0435,-0.13661 -0.0873,-0.31752 -0.32226,-0.66211 -0.0587,-0.0861 -0.13335,-0.18382 -0.23242,-0.29101 -0.0991,-0.1072 -0.39014,-0.34341 -0.39063,-0.34375 -4.7e-4,-3.4e-4 -0.57745,-0.29906 -0.60742,-0.31446 l 0.8418,-0.42187 v -1.54492 c 0,-0.91921 -0.35985,-1.92805 -0.96094,-2.64063 -0.49248,-0.58383 -1.11099,-0.89758 -1.72656,-1.1875 z m -147.07617,0.49805 c -0.33219,0.095 -0.6862,0.0923 -1.00391,0.23437 0.29229,-0.12394 0.68717,-0.14098 1.00391,-0.23437 z m 97.5664,0.23633 c 0.27745,0.11606 0.60438,0.0792 0.87695,0.2539 l 0.0117,0.008 0.0117,0.008 c 0.47964,0.29978 0.7461,0.61661 0.7461,2.10351 0,1.01765 -0.49753,2.14645 -1.43164,3.4043 0.4926,-0.97574 0.81445,-2.01685 0.81445,-3.11523 0,-0.84133 -0.31254,-1.87524 -1.0293,-2.66211 z m 31.00781,0 c 0.27745,0.11606 0.60438,0.0792 0.87696,0.2539 l 0.0117,0.008 0.0117,0.008 c 0.47965,0.29978 0.7461,0.61661 0.7461,2.10351 0,1.01765 -0.49752,2.14645 -1.43164,3.4043 0.4926,-0.97574 0.81445,-2.01685 0.81445,-3.11523 0,-0.84138 -0.31245,-1.87523 -1.0293,-2.66211 z m 58.94532,0 c 0.27704,0.11597 0.6028,0.0794 0.875,0.2539 l 0.0117,0.008 0.0137,0.008 c 0.47964,0.29978 0.74414,0.61661 0.74414,2.10351 0,1.01765 -0.49557,2.14645 -1.42969,3.4043 0.4926,-0.97574 0.81445,-2.01685 0.81445,-3.11523 0,-0.84133 -0.31254,-1.87524 -1.02929,-2.66211 z m -161.50391,0.0254 c 1.33641,0 1.82415,0.27869 2.53125,1.52148 l 1.0957,1.92578 c -0.0208,0.0421 -0.0436,0.076 -0.0644,0.1211 -0.10932,0.23687 -0.30273,0.39405 -0.30273,1.27539 v 0.11719 l 0.0117,0.11718 c 0.0694,0.74069 0.13217,3.17715 0.13282,6.83594 l -0.10742,2.0918 c -0.20945,0.0333 -0.33195,0.0389 -0.50977,0.0605 0.12414,-1.64806 0.28906,-3.33931 0.28906,-4.85351 0,-2.3472 -0.0757,-3.97182 -0.47656,-5.39649 -0.22227,-0.87013 -0.73114,-1.79677 -1.55078,-2.40625 -0.7748,-0.57613 -1.68449,-0.78316 -2.52149,-0.81445 0.0894,-0.0533 0.0724,-0.0536 0.16993,-0.10937 l 0.0117,-0.006 0.0117,-0.008 c 0.66843,-0.39183 1.10158,-0.47265 1.2793,-0.47265 z m -39.18945,0.26953 c -0.0336,0.19139 -0.039,0.42462 -0.0684,0.54492 -0.55897,0.0774 -1.09821,0.19651 -1.62696,0.37305 0.26934,-0.22613 0.53763,-0.45251 0.82422,-0.6211 l 0.0488,-0.0273 0.0488,-0.0312 c 0.2566,-0.16709 0.5217,-0.11831 0.77344,-0.23828 z m 0.37695,0.24219 0.98828,0.15234 h -0.1914 c -0.3171,0 -0.61817,0.0811 -0.92969,0.11328 z m 44.53125,0.66797 c -0.0157,0.0104 -0.0254,0.0286 -0.041,0.0391 -0.0153,0.0109 -0.0356,0.0143 -0.0508,0.0254 z m -45.07617,0.41992 c -1.2e-4,2.4e-4 -0.002,0.0174 -0.002,0.0176 l -0.041,0.0684 z m 155.18359,0.082 c -0.0112,0.003 -0.02,0.0103 -0.0312,0.0137 -0.0113,0.004 -0.0179,0.002 -0.0293,0.006 z m -145.59375,0.22461 c -1.61466,1.72128 -2.34765,4.09229 -2.34765,6.63476 0,3.02003 1.18843,5.85237 3.59179,7.3086 0.29392,0.18337 0.62021,0.25715 0.93164,0.38086 -1.1732,-0.33682 -2.18043,-0.8446 -2.96679,-1.70118 -1.34556,-1.46569 -2.0293,-3.26967 -2.0293,-5.89257 0,-2.54927 0.81169,-4.61062 2.65234,-6.61133 0.0489,-0.0531 0.11841,-0.0676 0.16797,-0.11914 z m 8.37696,0.0625 h 1.18359 c -0.52,0 -0.24507,-0.0814 0.2832,0.33203 l 0.0469,0.0371 0.0488,0.0352 c 0.62885,0.44544 1.08848,0.87064 1.39648,1.24024 0.19139,0.22967 0.50956,0.77477 0.79687,1.63672 l 0.004,0.0117 0.004,0.0117 c 0.2479,0.72116 0.39062,1.59174 0.39062,2.64257 0,2.53123 -0.70748,4.51402 -2.20898,6.32618 l -0.002,0.002 c -0.7337,0.88817 -1.56948,1.47512 -2.55078,1.86523 0.78338,-0.39525 1.50411,-0.933 2.10938,-1.57617 1.51944,-1.57985 2.13281,-3.78222 2.13281,-6.13672 0,-2.36433 -0.67181,-4.71547 -2.6582,-5.95117 -0.30423,-0.1962 -0.64637,-0.32543 -0.97656,-0.47656 z m 84.38671,0.0625 c -1.2115,1.75061 -1.84765,3.85075 -1.84765,6.07617 0,0.34305 -0.008,0.65609 0.14453,1.19141 0.0765,0.26765 0.18511,0.62156 0.56641,1.0664 0.30689,0.35805 0.97289,0.60383 1.59375,0.73633 v 1.61523 c 0,1.02534 0.61768,1.97243 1.1875,2.44727 0.56981,0.47485 1.11195,0.69747 1.67382,0.88477 l 0.0566,0.0176 0.0586,0.0176 c 0.79422,0.22238 1.60066,0.29185 2.40429,0.33985 -0.36016,0.0183 -0.55825,0.0801 -0.96093,0.0801 -2.67137,0 -4.25864,-0.68963 -5.4375,-2.00195 -1.23615,-1.37609 -1.90235,-3.17991 -1.90235,-5.86523 0,-2.63669 0.76158,-4.68449 2.40235,-6.56055 l 0.002,-0.002 c 0.0166,-0.019 0.0419,-0.0242 0.0586,-0.043 z m 89.95313,0.002 c -1.21086,1.75034 -1.84766,3.84938 -1.84766,6.07422 0,0.34305 -0.0104,0.65609 0.14258,1.19141 0.0765,0.26765 0.18511,0.62156 0.56641,1.0664 0.3065,0.35759 0.97373,0.60143 1.59375,0.73438 v 1.61718 c 0,1.02534 0.61768,1.97243 1.1875,2.44727 0.56981,0.47485 1.11195,0.69747 1.67383,0.88477 l 0.0586,0.0176 0.0586,0.0176 c 0.79409,0.22235 1.59885,0.29183 2.40235,0.33985 -0.36017,0.0183 -0.55825,0.0801 -0.96094,0.0801 -2.67137,0 -4.25668,-0.68963 -5.43555,-2.00195 -1.23614,-1.37609 -1.90429,-3.17991 -1.90429,-5.86523 0,-2.63669 0.76352,-4.68449 2.40429,-6.56055 l 0.002,-0.002 c 0.0164,-0.0187 0.0421,-0.0225 0.0586,-0.041 z m -58.94531,0.002 c -1.21017,1.75006 -1.84766,3.84807 -1.84766,6.07227 0,0.34305 -0.008,0.65609 0.14453,1.19141 0.0765,0.26765 0.18511,0.62156 0.56641,1.0664 0.3069,0.35805 0.97289,0.60383 1.59375,0.73633 v 1.61523 c 0,1.02534 0.61768,1.97243 1.1875,2.44727 0.56981,0.47485 1.11195,0.69747 1.67383,0.88477 l 0.0566,0.0176 0.0605,0.0176 c 0.79409,0.22235 1.59885,0.29183 2.40235,0.33985 -0.36017,0.0183 -0.55825,0.0801 -0.96094,0.0801 -2.67137,0 -4.25668,-0.68963 -5.43555,-2.00195 -1.23614,-1.37609 -1.90429,-3.17991 -1.90429,-5.86523 0,-2.63707 0.76303,-4.68426 2.40429,-6.56055 0.0164,-0.0187 0.0421,-0.0225 0.0586,-0.041 z m 50.38086,0.50977 h 2.50195 c -0.67348,1.5193 -1.04585,3.14197 -1.18359,4.84766 -0.89979,-1.01575 -1.88214,-1.9213 -3.01368,-2.5625 l 0.0156,0.008 c -0.87765,-0.50633 -1.34622,-0.87427 -1.79883,-1.22461 0.36141,-0.19408 0.62993,-0.37593 1.33789,-0.60156 1.15236,-0.34308 2.00201,-0.4668 2.14063,-0.4668 z m -157.28321,1.10352 0.006,0.0215 c -9.9e-4,-0.003 -0.003,-0.005 -0.004,-0.008 -0.001,-0.004 -5e-4,-0.009 -0.002,-0.0137 z m 21.14844,0.96289 0.01,0.23242 c 0,0.0223 -0.004,0.002 -0.004,0.0234 -0.004,-0.0479 -0.002,-0.21041 -0.006,-0.25586 z m -34.49023,0.9082 0.4082,0.81641 h 1.92773 c 0.13582,0 0.36442,0.0337 0.79493,0.31445 l 0.0293,0.0195 0.0293,0.0176 c -0.0243,-0.0149 0.29492,0.18048 0.29492,1.70898 0,1.54217 -0.34619,2.2746 -0.73633,2.67774 l -0.0137,0.0156 -0.0156,0.0137 c -0.59502,0.63605 -0.86907,0.69727 -1.19727,0.69727 -0.75297,0 -1.10661,-0.1544 -1.16211,-0.18945 l -0.0234,-0.0156 -0.0254,-0.0156 c -0.78033,-0.46821 -1.18554,-1.07725 -1.18554,-3.03907 0,-1.53074 0.35114,-2.38655 0.875,-3.02148 z m 187.43164,1.00195 c -0.0182,0.0204 -0.0205,0.0361 -0.0391,0.0566 l -0.008,0.008 -0.008,0.01 c -0.005,0.006 -0.0142,0.01 -0.0195,0.0156 0.0214,-0.0319 0.0532,-0.0577 0.0742,-0.0898 z m -89.95508,0.004 c -0.0171,0.0192 -0.0198,0.0335 -0.0371,0.0527 l -0.008,0.008 -0.006,0.01 c -0.006,0.007 -0.017,0.0123 -0.0234,0.0195 0.0215,-0.0319 0.0532,-0.0577 0.0742,-0.0898 z m 31.00781,0 c -0.0171,0.0192 -0.0197,0.0335 -0.0371,0.0527 l -0.006,0.008 -0.008,0.01 c -0.006,0.007 -0.017,0.0123 -0.0234,0.0195 0.0215,-0.0319 0.0532,-0.0577 0.0742,-0.0898 z m 64.58203,0.45312 c 0.26253,0.4264 0.48889,0.87777 0.82813,1.24414 l 0.0156,0.0176 0.0176,0.0176 c 0.96871,1.00745 2.06392,1.84737 3.26563,2.48828 0.8137,0.43398 1.5447,0.92802 2.20703,1.48438 0.097,0.0815 0.0788,0.0769 0.13086,0.13086 -8e-4,-0.0455 0.0993,-0.0294 -0.66602,0.47461 -0.70381,0.46348 -2.1284,0.88476 -4.33594,0.88476 h -0.39843 c 4.7e-4,-0.0491 0.0176,-0.0913 0.0176,-0.14062 0,-0.34786 -0.003,-0.62075 -0.0371,-0.94532 -0.0171,-0.16228 -0.0247,-0.31986 -0.13281,-0.66211 -0.054,-0.17112 -0.11383,-0.39778 -0.39062,-0.77343 -0.2768,-0.37566 -1.03758,-1.03125 -2.03516,-1.03125 -0.26164,0 -0.61899,0.0698 -0.99219,0.21289 0.16505,-0.16969 0.39201,-0.28414 0.54883,-0.46094 0.82959,-0.92089 1.42182,-1.926 1.95703,-2.94141 z m -89.98437,0.0508 -0.041,3.64844 c -0.37501,-0.27119 -0.83871,-0.50976 -1.43945,-0.50976 -0.26188,0 -0.62058,0.0714 -0.99414,0.21484 0.16661,-0.17128 0.3945,-0.28828 0.55273,-0.4668 0.81421,-0.9043 1.39101,-1.8911 1.92188,-2.88672 z m 37.60937,0.66993 c -1.1056,1.06354 -1.94336,2.47245 -1.94336,4.00976 0,1.26724 0.5798,2.63438 1.51563,3.50781 0.76249,0.71166 1.69764,1.00958 2.65039,1.16993 -0.16518,0.009 -0.29188,0.0703 -0.46485,0.0703 -1.85451,0 -2.92666,-0.41894 -3.60937,-1.00391 -0.7028,-0.65854 -0.99414,-1.28851 -0.99414,-2.49609 0,-1.4318 0.29351,-2.4252 0.76367,-3.17188 0.6328,-0.98415 1.29011,-1.62504 1.9668,-2.03515 0.034,-0.0206 0.0809,-0.0305 0.11523,-0.0508 z m 15.49414,0.0488 c 0.11941,0.14926 0.18694,0.33478 0.31641,0.47461 l 0.0156,0.0176 0.0176,0.0176 c 0.96871,1.00745 2.06392,1.84737 3.26563,2.48828 0.8137,0.43398 1.54666,0.92802 2.20898,1.48438 0.0973,0.0817 0.0788,0.0768 0.13086,0.13086 -5.4e-4,-0.0465 0.10047,-0.0301 -0.66601,0.47461 -0.70382,0.46348 -2.13036,0.88476 -4.3379,0.88476 h -0.84375 c -0.006,-0.0944 -0.0543,-0.76175 -0.0762,-1.82422 -0.0206,-1.00481 -0.0287,-2.47934 -0.0312,-4.14844 z m -10.33593,2.53321 c -0.001,0.76917 -0.0398,0.68722 -0.20704,0.79101 l -0.0176,0.01 -0.0156,0.0117 c -0.54298,0.34906 -0.97234,0.46679 -1.48047,0.46679 -0.34315,0 -0.24335,0.008 -0.27344,0 0.002,-0.12373 -0.0567,-0.18001 0.32813,-0.45312 l 0.004,-0.002 0.002,-0.002 c 0.50969,-0.36406 1.0643,-0.62155 1.66016,-0.82226 z m 2.46289,5.01758 -0.0332,0.0215 c 0.004,-0.002 0.006,-0.007 0.01,-0.01 0.007,-0.005 0.016,-0.007 0.0234,-0.0117 z m 5.07421,1.42968 c -0.0183,0.0151 -0.14271,0.0872 -0.17578,0.11133 0.12266,-0.16705 0.23123,-0.15707 0.17578,-0.11133 z m -3.43359,2.17188 -0.041,0.0293 -0.0293,0.01 c 0.0215,-0.0168 0.049,-0.0221 0.0703,-0.0391 z m -171.24414,0.0606 c 3.7e-4,0.0144 0.0156,0.0288 0.0156,0.043 l -0.0391,0.44141 c 0.0182,-0.1016 0.007,-0.37681 0.0234,-0.48437 z m 39.125,0.0117 c 2e-4,0.0105 0.0117,0.0209 0.0117,0.0312 l -0.0332,0.40235 c 0.016,-0.0984 0.007,-0.33051 0.0215,-0.4336 z"
           id="path13" />
        <path
           style="font-size:medium;font-family:'Bubblegum Sans';-inkscape-font-specification:'Bubblegum Sans';font-variant-ligatures:normal;text-align:start;baseline-shift:baseline;white-space:normal;display:inline;overflow:visible;vector-effect:none;stroke:none;stroke-linecap:butt;enable-background:accumulate;stop-color:#000000;stop-opacity:1"
           d="m 343.26301,231.1086 0.24,19.2 q 0,1.872 -0.096,2.352 -1.824,1.344 -4.848,1.344 l -1.344,-0.24 q 0.72,-5.328 0.72,-19.68 0,-3.6 -0.048,-5.28 l -2.112,0.096 q -0.24,-0.24 -0.24,-2.112 0,-1.872 0.432,-2.304 0.864,-0.048 1.872,-0.096 l -0.096,-5.808 q -0.096,-0.768 3.552,-2.544 3.648,-1.776 5.952,-1.776 0.288,0 0.72,1.104 0.48,1.056 0.48,1.68 0,0.576 -0.048,0.72 -0.144,0 -1.248,0.528 -1.104,0.48 -2.304,1.296 -1.2,0.768 -1.248,1.344 -0.192,1.248 -0.288,3.408 h 0.192 q 3.888,0 3.888,0.144 0,2.256 -0.912,3.744 -0.336,0.576 -0.576,0.576 -1.536,-0.096 -2.64,-0.096 z m 8.20797,12.048 -0.096,-10.896 q 0,-2.832 0.192,-3.024 0.528,-0.528 1.824,-0.912 1.296,-0.432 2.4,-0.432 1.152,0 1.152,0.24 -0.144,1.296 -0.144,2.976 0,1.632 0.096,1.632 0.096,0 0.192,-0.096 0.096,-0.144 0.288,-0.384 0.24,-0.288 0.912,-0.96 0.72,-0.672 1.536,-1.152 2.064,-1.344 4.416,-1.344 0.384,0.624 0.384,1.92 0,2.736 -0.672,3.888 l -0.192,0.384 -0.624,-0.096 q -3.456,0 -5.424,2.832 -0.768,1.152 -0.768,1.728 v 4.224 q 0,5.76 -0.144,5.904 -1.344,1.296 -5.28,1.296 -0.384,0 -0.384,-0.144 0.336,-1.872 0.336,-7.584 z m 34.94401,-3.504 q 0,4.56 -2.784,7.92 -2.736,3.312 -7.488,3.312 -4.704,0 -7.392,-2.928 -2.688,-2.928 -2.688,-7.584 0,-4.704 3.312,-8.304 3.36,-3.648 9.024,-3.648 2.304,0.096 2.496,0.288 0.192,0.192 0.192,0.912 0,0.72 -0.144,1.584 0.72,0 1.824,0.864 1.152,0.816 1.872,1.68 0.72,0.864 1.248,2.448 0.528,1.536 0.528,3.456 z m -7.008,-3.36 q -1.104,-0.72 -2.16,-0.72 h -0.384 q -0.096,-0.192 -0.096,-0.816 0,-0.624 0.144,-1.2 -1.968,0 -3.696,1.776 -1.68,1.776 -1.68,4.944 0,3.744 2.4,5.184 0.912,0.576 2.496,0.576 1.632,0 3.024,-1.488 1.44,-1.488 1.44,-4.416 0,-2.928 -1.488,-3.84 z m 11.18396,7.392 -0.144,-11.28 q 0,-3.072 0.24,-3.312 0.576,-0.528 1.776,-0.96 1.2,-0.48 2.304,-0.48 1.104,0 1.104,0.192 -0.192,2.112 -0.192,3.216 0,1.104 0.096,1.104 0.096,0 0.288,-0.192 0.192,-0.24 0.672,-0.672 0.528,-0.48 1.872,-1.248 1.392,-0.816 2.544,-0.816 3.12,0 4.704,2.784 2.736,-3.84 6.048,-3.84 2.976,0 4.272,2.544 1.344,2.832 1.584,5.664 0.288,4.128 0.288,8.544 l -0.192,5.616 q 0,0.336 -1.584,0.624 -1.584,0.336 -2.544,0.336 l -1.536,-0.24 q 0.528,-4.752 0.528,-7.68 0,-2.928 -0.096,-4.176 -0.048,-1.296 -0.336,-2.544 -0.288,-1.296 -0.912,-1.824 -0.576,-0.576 -1.488,-0.576 -0.912,0 -1.632,0.528 -0.72,0.48 -1.056,0.96 -0.288,0.48 -0.288,0.624 0.144,1.536 0.144,7.104 l -0.192,3.792 q 0,0.384 -1.536,0.672 -1.536,0.288 -2.496,0.288 l -1.536,-0.24 q 0.432,-3.888 0.432,-7.248 0,-3.408 -0.384,-4.752 -0.336,-1.392 -1.872,-1.392 -1.536,0 -2.592,1.536 -1.056,1.536 -1.056,2.352 v 1.008 l 0.048,5.088 q 0,4.704 -0.192,4.944 -1.2,1.152 -5.04,1.152 -0.384,0 -0.384,-0.144 0.336,-2.064 0.336,-7.056 z m 48.48007,-10.32 q 5.664,-0.528 8.304,-2.64 2.688,-2.16 2.688,-4.224 0,-2.112 -2.064,-3.072 -2.064,-1.008 -5.232,-1.008 -1.68,0 -3.408,0.288 -0.288,2.064 -0.288,10.656 z m 0.528,16.56 q -0.528,0.528 -2.112,0.816 -1.584,0.336 -2.64,0.336 -1.056,0 -1.824,-0.288 l 0.288,-27.696 q -0.624,-0.768 -1.248,-2.544 -0.576,-1.776 -0.576,-2.16 0,-0.432 0.096,-0.528 0.096,-0.144 3.024,-0.288 2.976,-0.192 6,-0.192 3.024,0 5.376,0.336 2.352,0.336 4.896,1.2 2.544,0.816 4.032,2.64 1.488,1.824 1.488,4.704 0,2.832 -2.016,5.28 -2.016,2.448 -5.472,4.128 0,0.768 3.024,6.912 3.024,6.096 4.8,7.872 0.048,0.048 0.048,0.144 0,0.144 -0.768,0.48 -2.112,1.008 -4.56,1.008 l -1.2,-0.096 q -1.056,-1.056 -3.696,-7.008 -2.592,-5.952 -2.88,-7.296 -0.576,0.336 -4.56,1.008 0.096,9.648 0.48,11.232 z m 31.63199,-15.552 q 0,-1.392 -1.488,-1.392 -1.968,0 -3.456,2.016 -1.488,2.016 -1.488,4.848 0,0.672 0.192,0.672 1.728,-0.048 3.984,-1.968 2.256,-1.968 2.256,-4.176 z m 4.176,15.264 q -1.632,1.104 -6.384,1.104 -4.752,0 -7.296,-2.832 -2.544,-2.832 -2.544,-7.536 0,-4.752 3.024,-8.208 3.072,-3.504 8.592,-3.504 2.256,0 4.128,1.2 1.92,1.2 1.92,4.224 0,2.976 -2.64,5.904 -2.592,2.928 -7.104,4.464 0,0.576 1.152,0.96 1.2,0.336 2.352,0.336 3.648,0 5.76,-1.296 0.048,-0.048 0.144,-0.048 0.096,0 0.096,0.912 0,2.784 -1.2,4.32 z m 5.04002,-6.816 0.192,-17.376 q 0,-3.792 -0.096,-5.136 -0.096,-1.344 -0.096,-1.44 0,-0.48 1.584,-1.104 1.632,-0.624 2.88,-0.624 1.248,0 1.248,0.192 -0.24,1.776 -0.24,12.48 l -0.096,11.76 q 0,3.312 0.096,4.08 0.24,2.112 1.392,3.84 0,0.48 -1.968,1.536 -1.968,1.056 -3.36,1.056 -0.384,0 -0.864,-1.44 -0.48,-1.44 -0.576,-2.496 -0.096,-1.056 -0.096,-5.328 z m 21.79198,-8.448 q 0,-1.392 -1.488,-1.392 -1.968,0 -3.456,2.016 -1.488,2.016 -1.488,4.848 0,0.672 0.192,0.672 1.728,-0.048 3.984,-1.968 2.256,-1.968 2.256,-4.176 z m 4.176,15.264 q -1.632,1.104 -6.384,1.104 -4.752,0 -7.296,-2.832 -2.544,-2.832 -2.544,-7.536 0,-4.752 3.024,-8.208 3.072,-3.504 8.592,-3.504 2.256,0 4.128,1.2 1.92,1.2 1.92,4.224 0,2.976 -2.64,5.904 -2.592,2.928 -7.104,4.464 0,0.576 1.152,0.96 1.2,0.336 2.352,0.336 3.648,0 5.76,-1.296 0.048,-0.048 0.144,-0.048 0.096,0 0.096,0.912 0,2.784 -1.2,4.32 z m 22.17601,-10.704 q 0,6 0.144,7.008 0.384,2.64 1.632,3.792 0,0.528 -1.92,1.584 -1.872,1.056 -3.408,1.056 -0.432,0 -0.912,-1.296 -0.48,-1.248 -0.576,-1.872 -0.048,-0.624 -0.096,-0.624 l -0.144,0.096 q -2.544,2.016 -5.952,2.016 -3.408,0 -5.28,-1.632 -1.824,-1.68 -1.824,-4.368 0,-2.688 1.152,-4.512 1.2,-1.872 2.784,-2.832 1.584,-0.96 3.504,-1.536 2.928,-0.96 4.608,-0.96 l 0.096,-0.048 q 0,-2.352 -5.952,-2.352 -2.352,0 -3.504,0.192 h -0.048 q 0,-0.96 0.576,-2.4 0.624,-1.44 1.008,-1.872 0.432,-0.432 3.456,-0.432 5.472,0 8.064,2.112 2.592,2.064 2.592,6.432 z m -5.328,3.072 v -1.824 q 0,-1.056 -0.048,-1.056 -3.216,0 -5.568,1.68 -1.488,1.056 -1.488,2.64 0,1.008 0.72,1.68 0.72,0.672 2.16,0.672 1.488,0 2.832,-0.864 1.392,-0.864 1.392,-2.928 z m 23.23197,2.112 q 0,2.592 -2.448,4.656 -2.4,2.016 -5.232,2.88 -2.784,0.912 -4.896,0.912 -0.24,0 -0.672,-0.576 -1.2,-1.584 -1.2,-3.696 v -0.336 q 3.744,0 5.712,-1.296 1.968,-1.296 1.968,-2.688 0,-0.912 -1.2,-1.92 -1.2,-1.008 -2.64,-1.776 -1.44,-0.768 -2.64,-2.016 -1.2,-1.296 -1.2,-2.688 0,-2.928 3.648,-5.376 3.648,-2.448 7.776,-2.448 0.48,0 1.248,1.344 0.768,1.296 0.816,2.688 -0.96,0 -2.88,0.576 -3.792,1.2 -3.792,2.976 0,1.248 3.744,3.408 1.44,0.816 2.64,2.256 1.2,1.44 1.248,3.12 z m 14.68805,-9.744 q 0,-1.392 -1.488,-1.392 -1.968,0 -3.456,2.016 -1.488,2.016 -1.488,4.848 0,0.672 0.192,0.672 1.728,-0.048 3.984,-1.968 2.256,-1.968 2.256,-4.176 z m 4.176,15.264 q -1.632,1.104 -6.384,1.104 -4.752,0 -7.296,-2.832 -2.544,-2.832 -2.544,-7.536 0,-4.752 3.024,-8.208 3.072,-3.504 8.592,-3.504 2.256,0 4.128,1.2 1.92,1.2 1.92,4.224 0,2.976 -2.64,5.904 -2.592,2.928 -7.104,4.464 0,0.576 1.152,0.96 1.2,0.336 2.352,0.336 3.648,0 5.76,-1.296 0.048,-0.048 0.144,-0.048 0.096,0 0.096,0.912 0,2.784 -1.2,4.32 z m 18.52801,-5.52 q 0,2.592 -2.448,4.656 -2.4,2.016 -5.232,2.88 -2.784,0.912 -4.896,0.912 -0.24,0 -0.672,-0.576 -1.2,-1.584 -1.2,-3.696 v -0.336 q 3.744,0 5.712,-1.296 1.968,-1.296 1.968,-2.688 0,-0.912 -1.2,-1.92 -1.2,-1.008 -2.64,-1.776 -1.44,-0.768 -2.64,-2.016 -1.2,-1.296 -1.2,-2.688 0,-2.928 3.648,-5.376 3.648,-2.448 7.776,-2.448 0.48,0 1.248,1.344 0.768,1.296 0.816,2.688 -0.96,0 -2.88,0.576 -3.792,1.2 -3.792,2.976 0,1.248 3.744,3.408 1.44,0.816 2.64,2.256 1.2,1.44 1.248,3.12 z"
           id="path14" />
      </g>
    </g>
  </g>
  <metadata
     id="metadata16">
    <rdf:RDF>
      <cc:License
         rdf:about="http://creativecommons.org/licenses/by-sa/4.0/">
        <cc:permits
           rdf:resource="http://creativecommons.org/ns#Reproduction" />
        <cc:permits
           rdf:resource="http://creativecommons.org/ns#Distribution" />
        <cc:requires
           rdf:resource="http://creativecommons.org/ns#Notice" />
        <cc:requires
           rdf:resource="http://creativecommons.org/ns#Attribution" />
        <cc:permits
           rdf:resource="http://creativecommons.org/ns#DerivativeWorks" />
        <cc:requires
           rdf:resource="http://creativecommons.org/ns#ShareAlike" />
      </cc:License>
      <cc:Work
         rdf:about="">
        <cc:license
           rdf:resource="http://creativecommons.org/licenses/by-sa/4.0/" />
      </cc:Work>
    </rdf:RDF>
  </metadata>
</svg>
